<svg width="334" height="238" viewBox="0 0 334 238" fill="none" xmlns="http://www.w3.org/2000/svg">
<g filter="url(#filter0_d_167_253)">
<path d="M10.5153 49.8451L10.5788 45.0438L107.948 23.0117V26.7838C107.948 27.8471 107.386 28.8309 106.469 29.3699L42.4702 67.0012C40.8981 67.9256 38.9473 67.9207 37.3798 66.9883L11.4927 51.5905C10.8784 51.2251 10.5058 50.5597 10.5153 49.8451Z" fill="#5A5A5A"/>
<path d="M37.4848 62.0396L12.0214 47.2544C10.6843 46.478 10.6962 44.5428 12.0428 43.783L76.5579 7.37807C78.0748 6.52207 79.9279 6.5172 81.4494 7.36522L106.435 21.2917C107.789 22.0461 107.807 23.9865 106.468 24.7667L42.5129 62.0356C40.9595 62.9409 39.0396 62.9424 37.4848 62.0396Z" fill="white" stroke="#C5C5C5"/>
<mask id="mask0_167_253" style="mask-type:alpha" maskUnits="userSpaceOnUse" x="11" y="6" width="97" height="57">
<path d="M37.4848 62.0396L12.0214 47.2544C10.6843 46.478 10.6962 44.5428 12.0428 43.783L76.5579 7.37807C78.0748 6.52207 79.9279 6.5172 81.4494 7.36522L106.435 21.2917C107.789 22.0461 107.807 23.9865 106.468 24.7667L42.5129 62.0356C40.9595 62.9409 39.0396 62.9424 37.4848 62.0396Z" fill="white"/>
</mask>
<g mask="url(#mask0_167_253)">
<path d="M44 69L2 44.5L78 -0.5L118.5 25L44 69Z" fill="white"/>
<path d="M108.5 29.5L69.4999 7.5L77.4999 2.5L114.5 23L108.5 29.5Z" fill="url(#paint0_linear_167_253)"/>
<path d="M74.5 52.5L34 27L68 6.5L110.5 30.5L74.5 52.5Z" fill="url(#paint1_linear_167_253)"/>
<path d="M71.9978 11.2996L69.9599 12.5156C69.305 12.9064 69.311 13.8569 69.9707 14.2395L86.5358 23.8442C86.8257 24.0123 87.1806 24.024 87.4809 23.8753L89.8192 22.7184C90.5363 22.3635 90.5671 21.3522 89.8729 20.9544L73.0074 11.2907C72.694 11.1111 72.308 11.1145 71.9978 11.2996Z" fill="url(#paint2_linear_167_253)"/>
<ellipse cx="79.5" cy="9.5" rx="2.5" ry="1.5" fill="url(#paint3_linear_167_253)"/>
<path d="M54.8371 31.4905L47.7786 27.4462C47.2976 27.1706 46.7054 27.1758 46.2293 27.4598C45.2268 28.058 45.2328 29.512 46.2401 30.102L53.2599 34.2131C53.7055 34.4741 54.2509 34.4998 54.7191 34.2818C55.8754 33.7432 55.9439 32.1247 54.8371 31.4905Z" fill="url(#paint4_linear_167_253)"/>
<path d="M67.4978 14.2996L65.4563 15.5178C64.8023 15.908 64.8072 16.8571 65.4653 17.2405L76.5352 23.691C76.8254 23.8601 77.1811 23.8723 77.4821 23.7233L79.8192 22.5669C80.5363 22.2121 80.5671 21.2007 79.8729 20.803L68.5074 14.2907C68.194 14.1111 67.808 14.1145 67.4978 14.2996Z" fill="url(#paint5_linear_167_253)"/>
<path d="M62.4922 17.303L60.4424 18.5261C59.7915 18.9144 59.7924 19.8575 60.4441 20.2446L75.0328 28.9109C75.3242 29.084 75.6833 29.0978 75.987 28.9475L78.3388 27.7839C79.0519 27.431 79.0873 26.4271 78.4009 26.0248L63.5102 17.299C63.1955 17.1146 62.8054 17.1161 62.4922 17.303Z" fill="url(#paint6_linear_167_253)"/>
<path d="M40.4765 35.3123L38.3977 36.5527C37.7574 36.9348 37.7454 37.8581 38.3757 38.2566L52.0254 46.8883C52.3201 47.0747 52.6907 47.0941 53.0033 46.9394L55.3908 45.7581C56.0931 45.4106 56.141 44.4271 55.4759 44.0129L41.5175 35.3222C41.1997 35.1243 40.798 35.1205 40.4765 35.3123Z" fill="url(#paint7_linear_167_253)"/>
<path d="M71.8834 30.3076L56.4073 21.2387C56.1648 21.0966 55.8582 21.128 55.6495 21.3163C55.327 21.6072 55.3787 22.1273 55.7521 22.3491L71.1738 31.5103C71.3772 31.6311 71.628 31.6407 71.8401 31.5358C72.338 31.2894 72.3627 30.5885 71.8834 30.3076Z" fill="url(#paint8_linear_167_253)"/>
<path d="M103.868 22.3172L87.9031 13.2295C87.6625 13.0925 87.3611 13.1253 87.1556 13.3108C86.8319 13.6028 86.8873 14.1256 87.265 14.3434L103.179 23.519C103.38 23.6346 103.625 23.6424 103.832 23.5398C104.329 23.2937 104.35 22.5918 103.868 22.3172Z" fill="url(#paint9_linear_167_253)"/>
<path d="M69.8834 31.3076L54.4073 22.2387C54.1648 22.0966 53.8582 22.128 53.6495 22.3163C53.327 22.6072 53.3787 23.1273 53.7521 23.3491L69.1738 32.5103C69.3772 32.6311 69.628 32.6407 69.8401 32.5358C70.338 32.2894 70.3627 31.5885 69.8834 31.3076Z" fill="url(#paint10_linear_167_253)"/>
<path d="M67.8834 32.3076L52.4073 23.2387C52.1648 23.0966 51.8582 23.128 51.6495 23.3163C51.327 23.6072 51.3787 24.1273 51.7521 24.3491L67.1738 33.5103C67.3772 33.6311 67.628 33.6407 67.8401 33.5358C68.338 33.2894 68.3627 32.5885 67.8834 32.3076Z" fill="url(#paint11_linear_167_253)"/>
<path d="M72 36.0003C67.2444 40.0242 68.8174 46.0277 70.5233 49.1916C70.7742 49.6568 71.359 49.798 71.8194 49.5386L104.839 30.9355C105.542 30.5398 105.512 29.5238 104.778 29.1902C98.0013 26.1103 87.3989 22.4944 88.5 28C89.7 34 84.8333 35.1669 83 34.5003C80.8246 33.7093 77.2 31.6003 72 36.0003Z" fill="url(#paint12_linear_167_253)"/>
<path d="M27.4714 36.3598L9.44698 46.4986C7.45256 47.6204 7.39796 50.4724 9.34798 51.6698L31.9537 65.5505C32.9044 66.1343 34.1005 66.1423 35.0589 65.5713L52.7147 55.0529C54.658 53.8952 54.6697 51.0852 52.7362 49.9113L30.4991 36.4102C29.573 35.8479 28.4157 35.8287 27.4714 36.3598Z" fill="url(#paint13_linear_167_253)"/>
<path d="M27.9789 37.304L26.4302 38.2074C25.7803 38.5865 25.766 39.5204 26.404 39.9192L40.4906 48.7233C40.8041 48.9192 41.2001 48.9262 41.5203 48.7414L43.0949 47.8329C43.7488 47.4557 43.7648 46.5176 43.1242 46.1182L29.0119 37.3192C28.697 37.1229 28.2994 37.117 27.9789 37.304Z" fill="url(#paint14_linear_167_253)"/>
<path d="M42.9843 54.1903L21.9556 41.2797C21.6753 41.1076 21.3228 41.1045 21.0395 41.2716C20.4631 41.6116 20.4554 42.4428 21.0255 42.7934L42.0444 55.7198C42.3251 55.8925 42.6778 55.8974 42.9632 55.7327C43.5525 55.3927 43.5641 54.5462 42.9843 54.1903Z" fill="url(#paint15_linear_167_253)"/>
<path d="M37.9771 54.6941L19.1842 43.2755C18.905 43.1059 18.5552 43.1036 18.2738 43.2695C17.6972 43.6096 17.6914 44.4417 18.2632 44.7898L37.0467 56.224C37.3262 56.3942 37.6763 56.3983 37.9597 56.2348C38.5491 55.8947 38.5587 55.0474 37.9771 54.6941Z" fill="url(#paint16_linear_167_253)"/>
<path d="M37.7011 58.2185L16.182 45.2715C15.904 45.1042 15.5566 45.1027 15.2772 45.2675C14.7004 45.6077 14.6965 46.4406 15.27 46.7862L36.7796 59.7489C37.058 59.9167 37.4055 59.92 37.687 59.7576C38.2765 59.4174 38.2843 58.5694 37.7011 58.2185Z" fill="url(#paint17_linear_167_253)"/>
</g>
</g>
<g filter="url(#filter1_d_167_253)">
<path d="M51.9331 78.8321L52 72.5L231 97.9998V102.793C231 103.851 230.443 104.831 229.533 105.372L162.116 145.445C160.509 146.4 158.504 146.379 156.917 145.39L52.8752 80.5506C52.2828 80.1814 51.9257 79.53 51.9331 78.8321Z" fill="#5A5A5A"/>
<path d="M156.951 138.414L53.8645 74.2821C52.5746 73.4796 52.6151 71.5886 53.9381 70.8421L118.497 34.4126C120.047 33.538 121.945 33.5532 123.48 34.4525L229.037 96.2648C230.36 97.0394 230.355 98.9529 229.029 99.7213L162.098 138.495C160.499 139.421 158.52 139.39 156.951 138.414Z" fill="white" stroke="#C5C5C5" stroke-width="2"/>
<mask id="mask1_167_253" style="mask-type:alpha" maskUnits="userSpaceOnUse" x="52" y="33" width="179" height="107">
<path d="M156.951 138.414L53.8645 74.2821C52.5746 73.4796 52.6151 71.5886 53.9381 70.8421L118.497 34.4126C120.047 33.538 121.945 33.5532 123.48 34.4525L229.037 96.2648C230.36 97.0394 230.355 98.9529 229.029 99.7213L162.098 138.495C160.499 139.421 158.52 139.39 156.951 138.414Z" fill="white"/>
</mask>
<g mask="url(#mask1_167_253)">
<path d="M122 26.5L37.5 77.5L160 151L242 100L122 26.5Z" fill="white"/>
<path d="M122 28L108 35L230 107.5L241 97L122 28Z" fill="url(#paint18_linear_167_253)"/>
<path d="M125 38C125 39.1046 123.433 40 121.5 40C119.567 40 118 39.1046 118 38C118 36.8954 119.567 36 121.5 36C123.433 36 125 36.8954 125 38Z" fill="url(#paint19_linear_167_253)"/>
<path d="M147.468 52.3835L147.225 52.5584C146.644 52.9774 146.679 53.8535 147.292 54.2248L157.022 60.1213C157.319 60.3012 157.688 60.3143 157.997 60.1559L158.39 59.9544C159.09 59.5956 159.121 58.6066 158.444 58.2049L148.564 52.3349C148.221 52.1315 147.791 52.1506 147.468 52.3835Z" fill="url(#paint20_linear_167_253)"/>
<path d="M160.468 60.3835L160.225 60.5584C159.644 60.9774 159.679 61.8535 160.292 62.2248L170.022 68.1213C170.319 68.3012 170.688 68.3143 170.997 68.1559L171.39 67.9544C172.09 67.5956 172.121 66.6066 171.444 66.2049L161.564 60.3349C161.221 60.1315 160.791 60.1506 160.468 60.3835Z" fill="url(#paint21_linear_167_253)"/>
<path d="M173.468 68.3835L173.225 68.5584C172.644 68.9774 172.679 69.8535 173.292 70.2248L183.022 76.1213C183.319 76.3012 183.688 76.3143 183.997 76.1559L184.39 75.9544C185.09 75.5956 185.121 74.6066 184.444 74.2049L174.564 68.3349C174.221 68.1315 173.791 68.1506 173.468 68.3835Z" fill="url(#paint22_linear_167_253)"/>
<path d="M213.468 91.3835L213.225 91.5584C212.644 91.9774 212.679 92.8535 213.292 93.2248L223.022 99.1213C223.319 99.3012 223.688 99.3143 223.997 99.1559L224.39 98.9544C225.09 98.5956 225.121 97.6066 224.444 97.2049L214.564 91.3349C214.221 91.1315 213.791 91.1506 213.468 91.3835Z" fill="url(#paint23_linear_167_253)"/>
<path d="M110.5 36L68 60.5L188 135L232.5 108.5L110.5 36Z" fill="url(#paint24_linear_167_253)"/>
<mask id="mask2_167_253" style="mask-type:alpha" maskUnits="userSpaceOnUse" x="68" y="36" width="165" height="99">
<path d="M110.5 36L68 60.5L188 135L232.5 108.5L110.5 36Z" fill="url(#paint25_linear_167_253)"/>
</mask>
<g mask="url(#mask2_167_253)">
<path d="M132 92.5002C128.132 97.1413 143.667 110 156 121L179 139L241 99.0001L194 68.5002C181.5 60 173.717 67.4871 169.5 75.5002C164.5 85.0001 157.5 72.5 153 79.5C143.41 94.4177 137 86.5002 132 92.5002Z" fill="url(#paint26_linear_167_253)"/>
</g>
<path d="M110.99 41.2914L105.975 44.1573C105.313 44.5355 105.301 45.4854 105.952 45.8807L151.023 73.2106C151.319 73.3905 151.688 73.4037 151.997 73.2456L157.401 70.4786C158.099 70.1215 158.133 69.1371 157.462 68.7323L112.003 41.3034C111.692 41.1161 111.305 41.1115 110.99 41.2914Z" fill="url(#paint27_linear_167_253)"/>
<path d="M102.49 46.2914L97.4718 49.159C96.8106 49.5368 96.7975 50.4855 97.448 50.8814L122.022 65.84C122.319 66.0208 122.689 66.0344 122.998 65.876L128.401 63.1095C129.099 62.7524 129.133 61.768 128.462 61.3632L103.503 46.3034C103.192 46.1161 102.805 46.1115 102.49 46.2914Z" fill="url(#paint28_linear_167_253)"/>
<path d="M91.4995 52.2503L90.5926 52.7037C89.8946 53.0527 89.8475 54.0311 90.5088 54.4455L126.135 76.7712C126.368 76.9172 126.651 76.9608 126.917 76.8918L128.244 76.5474C129.095 76.3266 129.267 75.1948 128.521 74.7304L92.4751 52.2957C92.1799 52.112 91.8105 52.0948 91.4995 52.2503Z" fill="url(#paint29_linear_167_253)"/>
<path d="M88.4995 54.2503L87.5926 54.7037C86.8946 55.0527 86.8475 56.0311 87.5088 56.4455L123.135 78.7712C123.368 78.9172 123.651 78.9608 123.917 78.8918L125.244 78.5474C126.095 78.3266 126.267 77.1948 125.521 76.7304L89.4751 54.2957C89.1799 54.112 88.8105 54.0948 88.4995 54.2503Z" fill="url(#paint30_linear_167_253)"/>
<path d="M85.4995 56.2503L84.5912 56.7044C83.8935 57.0532 83.8461 58.0311 84.5068 58.4458L112.966 76.3088C113.199 76.4551 113.482 76.4989 113.748 76.4297L115.075 76.0854C115.926 75.8647 116.098 74.7329 115.352 74.2685L86.4751 56.2957C86.1799 56.112 85.8105 56.0948 85.4995 56.2503Z" fill="url(#paint31_linear_167_253)"/>
<path d="M90.68 66.1263L81.4884 60.5793C80.8887 60.2174 80.1478 60.1791 79.514 60.4772C78.0054 61.1867 77.8893 63.2883 79.3105 64.1597L88.4627 69.7712C89.0902 70.156 89.8717 70.19 90.5302 69.8614C92.0349 69.1105 92.1197 66.9951 90.68 66.1263Z" fill="url(#paint32_linear_167_253)"/>
<path d="M109.477 89.3123L107.398 90.5527C106.757 90.9348 106.745 91.8581 107.376 92.2566L121.025 100.888C121.32 101.075 121.691 101.094 122.003 100.939L124.391 99.7581C125.093 99.4106 125.141 98.4271 124.476 98.0129L110.517 89.3222C110.2 89.1243 109.798 89.1205 109.477 89.3123Z" fill="url(#paint33_linear_167_253)"/>
<path d="M64.4714 69.8598L46.447 79.9986C44.4526 81.1204 44.398 83.9724 46.348 85.1698L68.9537 99.0505C69.9044 99.6343 71.1005 99.6423 72.0589 99.0713L89.7147 88.5529C91.658 87.3952 91.6697 84.5852 89.7362 83.4113L67.4991 69.9102C66.573 69.3479 65.4157 69.3287 64.4714 69.8598Z" fill="url(#paint34_linear_167_253)"/>
<path d="M98.4714 91.8598L80.447 101.999C78.4526 103.12 78.398 105.972 80.348 107.17L102.954 121.051C103.904 121.634 105.1 121.642 106.059 121.071L123.715 110.553C125.658 109.395 125.67 106.585 123.736 105.411L101.499 91.9102C100.573 91.3479 99.4157 91.3287 98.4714 91.8598Z" fill="url(#paint35_linear_167_253)"/>
<path d="M135.471 114.86L117.447 124.999C115.453 126.12 115.398 128.972 117.348 130.17L139.954 144.051C140.904 144.634 142.1 144.642 143.059 144.071L160.715 133.553C162.658 132.395 162.67 129.585 160.736 128.411L138.499 114.91C137.573 114.348 136.416 114.329 135.471 114.86Z" fill="url(#paint36_linear_167_253)"/>
<path d="M64.9789 71.304L63.4302 72.2074C62.7803 72.5865 62.766 73.5204 63.404 73.9192L77.4906 82.7233C77.8041 82.9192 78.2001 82.9262 78.5203 82.7414L80.0949 81.8329C80.7488 81.4557 80.7648 80.5176 80.1242 80.1182L66.0119 71.3192C65.697 71.1229 65.2994 71.117 64.9789 71.304Z" fill="url(#paint37_linear_167_253)"/>
<path d="M74.5004 84.1969L60.2091 75.2863C59.9267 75.1102 59.5701 75.1049 59.2827 75.2726C58.6998 75.6126 58.687 76.4502 59.2592 76.8079L73.5409 85.7339C73.8236 85.9106 74.1806 85.9177 74.4702 85.7525C75.0658 85.4125 75.0823 84.5597 74.5004 84.1969Z" fill="url(#paint38_linear_167_253)"/>
<path d="M108.5 105.197L94.2091 96.2863C93.9267 96.1102 93.5701 96.1049 93.2827 96.2726C92.6998 96.6126 92.687 97.4502 93.2592 97.8079L107.541 106.734C107.824 106.911 108.181 106.918 108.47 106.752C109.066 106.413 109.082 105.56 108.5 105.197Z" fill="url(#paint39_linear_167_253)"/>
<path d="M146.5 129.197L132.209 120.286C131.927 120.11 131.57 120.105 131.283 120.273C130.7 120.613 130.687 121.45 131.259 121.808L145.541 130.734C145.824 130.911 146.181 130.918 146.47 130.752C147.066 130.413 147.082 129.56 146.5 129.197Z" fill="url(#paint40_linear_167_253)"/>
<path d="M98.9789 93.304L97.4302 94.2074C96.7803 94.5865 96.766 95.5204 97.404 95.9192L111.491 104.723C111.804 104.919 112.2 104.926 112.52 104.741L114.095 103.833C114.749 103.456 114.765 102.518 114.124 102.118L100.012 93.3192C99.697 93.1229 99.2994 93.117 98.9789 93.304Z" fill="url(#paint41_linear_167_253)"/>
<path d="M136.979 116.304L135.43 117.207C134.78 117.586 134.766 118.52 135.404 118.919L149.491 127.723C149.804 127.919 150.2 127.926 150.52 127.741L152.095 126.833C152.749 126.456 152.765 125.518 152.124 125.118L138.012 116.319C137.697 116.123 137.299 116.117 136.979 116.304Z" fill="url(#paint42_linear_167_253)"/>
</g>
</g>
<g filter="url(#filter2_d_167_253)">
<path d="M140.71 182.849V176.974L320.86 152.5V157.762C320.86 158.837 320.285 159.83 319.352 160.365L210.059 223.033C208.48 223.938 206.534 223.914 204.978 222.97L141.673 184.558C141.075 184.196 140.71 183.548 140.71 182.849Z" fill="#5A5A5A"/>
<path d="M204.95 217.909L141.794 178.509C140.521 177.714 140.544 175.853 141.836 175.09L249.417 111.526C251.007 110.587 252.985 110.6 254.562 111.561L319.624 151.199C320.92 151.989 320.899 153.878 319.585 154.638L210.101 217.995C208.5 218.921 206.519 218.888 204.95 217.909Z" fill="white" stroke="#C5C5C5"/>
<mask id="mask3_167_253" style="mask-type:alpha" maskUnits="userSpaceOnUse" x="140" y="110" width="181" height="109">
<path d="M204.95 217.909L141.794 178.509C140.521 177.714 140.544 175.853 141.836 175.09L249.417 111.526C251.007 110.587 252.985 110.6 254.562 111.561L319.624 151.199C320.92 151.989 320.899 153.878 319.585 154.638L210.101 217.995C208.5 218.921 206.519 218.888 204.95 217.909Z" fill="white"/>
</mask>
<g mask="url(#mask3_167_253)">
<path d="M255 106.5L242.5 114L315.5 159.5L328.5 152L255 106.5Z" fill="url(#paint43_linear_167_253)"/>
<path d="M256 115C256 116.105 254.433 117 252.5 117C250.567 117 249 116.105 249 115C249 113.895 250.567 113 252.5 113C254.433 113 256 113.895 256 115Z" fill="url(#paint44_linear_167_253)"/>
<path d="M264.457 121.391L264.199 121.577C263.625 121.991 263.651 122.854 264.249 123.233L273.517 129.105C273.816 129.294 274.193 129.312 274.509 129.15L274.925 128.936C275.618 128.581 275.657 127.606 274.996 127.197L265.569 121.353C265.224 121.139 264.785 121.155 264.457 121.391Z" fill="url(#paint45_linear_167_253)"/>
<path d="M276.957 129.391L276.699 129.577C276.125 129.991 276.151 130.854 276.749 131.233L286.017 137.105C286.316 137.294 286.693 137.312 287.008 137.15L287.425 136.936C288.117 136.581 288.157 135.606 287.496 135.197L278.068 129.353C277.724 129.139 277.285 129.155 276.957 129.391Z" fill="url(#paint46_linear_167_253)"/>
<path d="M289.957 137.391L289.699 137.577C289.125 137.991 289.151 138.854 289.749 139.233L299.017 145.105C299.316 145.294 299.693 145.312 300.008 145.15L300.425 144.936C301.117 144.581 301.157 143.606 300.496 143.197L291.068 137.353C290.724 137.139 290.285 137.155 289.957 137.391Z" fill="url(#paint47_linear_167_253)"/>
<path d="M307.895 148.825L307.649 149.003C307.069 149.421 307.103 150.296 307.714 150.668L315.022 155.12C315.319 155.301 315.689 155.314 315.998 155.155L316.39 154.955C317.09 154.596 317.121 153.607 316.444 153.205L308.991 148.777C308.648 148.573 308.218 148.593 307.895 148.825Z" fill="url(#paint48_linear_167_253)"/>
<path d="M241 113L195.5 140.5L274 190L320.5 162.5L241 113Z" fill="url(#paint49_linear_167_253)"/>
<mask id="mask4_167_253" style="mask-type:alpha" maskUnits="userSpaceOnUse" x="195" y="113" width="126" height="77">
<path d="M241 113L195.5 140.5L274 190L320.5 162.5L241 113Z" fill="url(#paint50_linear_167_253)"/>
</mask>
<g mask="url(#mask4_167_253)">
<path d="M251.5 158C241.5 158 241.333 171 242.5 177.5L273 197.5L334 158L300.5 136C297 138.667 293 144.5 279.5 144.5C271.09 144.5 273 152 270 156C265.5 159.5 261.5 158 251.5 158Z" fill="url(#paint51_linear_167_253)"/>
</g>
<path d="M241.471 118.311L237.901 120.409C237.259 120.786 237.24 121.708 237.866 122.112L269.516 142.492C269.815 142.685 270.195 142.704 270.513 142.541L274.449 140.526C275.136 140.174 275.182 139.209 274.532 138.793L242.517 118.33C242.2 118.128 241.796 118.12 241.471 118.311Z" fill="url(#paint52_linear_167_253)"/>
<path d="M233.972 123.31L230.401 125.409C229.759 125.786 229.74 126.708 230.366 127.112L255.016 142.984C255.315 143.178 255.695 143.196 256.013 143.034L259.947 141.019C260.635 140.667 260.681 139.702 260.029 139.286L235.016 123.329C234.699 123.127 234.296 123.12 233.972 123.31Z" fill="url(#paint53_linear_167_253)"/>
<path d="M223.219 130.312L222.398 130.794C221.757 131.171 221.737 132.092 222.362 132.496L250.521 150.69C250.818 150.882 251.194 150.903 251.511 150.745L252.431 150.284C253.124 149.938 253.177 148.969 252.526 148.55L224.268 130.334C223.95 130.129 223.545 130.121 223.219 130.312Z" fill="url(#paint54_linear_167_253)"/>
<path d="M220.219 132.312L219.398 132.794C218.757 133.171 218.737 134.092 219.362 134.496L247.521 152.69C247.818 152.882 248.194 152.903 248.511 152.745L249.431 152.284C250.124 151.938 250.177 150.969 249.526 150.55L221.268 132.334C220.95 132.129 220.545 132.121 220.219 132.312Z" fill="url(#paint55_linear_167_253)"/>
<path d="M217.219 134.312L216.398 134.794C215.757 135.171 215.737 136.092 216.362 136.496L244.521 154.69C244.818 154.882 245.194 154.903 245.511 154.745L246.431 154.284C247.124 153.938 247.177 152.969 246.526 152.55L218.268 134.334C217.95 134.129 217.545 134.121 217.219 134.312Z" fill="url(#paint56_linear_167_253)"/>
<path d="M220.839 146.056L212.528 140.65C211.907 140.246 211.12 140.192 210.449 140.508C208.938 141.219 208.786 143.31 210.18 144.231L218.452 149.697C219.1 150.126 219.928 150.176 220.624 149.829C222.13 149.077 222.25 146.973 220.839 146.056Z" fill="url(#paint57_linear_167_253)"/>
<path d="M217.477 160.312L215.398 161.553C214.757 161.935 214.745 162.858 215.376 163.257L229.025 171.888C229.32 172.075 229.691 172.094 230.003 171.939L232.391 170.758C233.093 170.411 233.141 169.427 232.476 169.013L218.517 160.322C218.2 160.124 217.798 160.121 217.477 160.312Z" fill="url(#paint58_linear_167_253)"/>
<path d="M189.471 150.86L171.447 160.999C169.453 162.12 169.398 164.972 171.348 166.17L193.954 180.051C194.904 180.634 196.1 180.642 197.059 180.071L214.715 169.553C216.658 168.395 216.67 165.585 214.736 164.411L192.499 150.91C191.573 150.348 190.416 150.329 189.471 150.86Z" fill="url(#paint59_linear_167_253)"/>
<path d="M163.471 166.86L145.447 176.999C143.453 178.12 143.398 180.972 145.348 182.17L167.954 196.051C168.904 196.634 170.1 196.642 171.059 196.071L188.715 185.553C190.658 184.395 190.67 181.585 188.736 180.411L166.499 166.91C165.573 166.348 164.416 166.329 163.471 166.86Z" fill="url(#paint60_linear_167_253)"/>
<path d="M223.471 172.86L205.447 182.999C203.453 184.12 203.398 186.972 205.348 188.17L227.954 202.051C228.904 202.634 230.1 202.642 231.059 202.071L248.715 191.553C250.658 190.395 250.67 187.585 248.736 186.411L226.499 172.91C225.573 172.348 224.416 172.329 223.471 172.86Z" fill="url(#paint61_linear_167_253)"/>
<path d="M197.471 188.86L179.447 198.999C177.453 200.12 177.398 202.972 179.348 204.17L201.954 218.051C202.904 218.634 204.1 218.642 205.059 218.071L222.715 207.553C224.658 206.395 224.67 203.585 222.736 202.411L200.499 188.91C199.573 188.348 198.416 188.329 197.471 188.86Z" fill="url(#paint62_linear_167_253)"/>
<path d="M189.986 152.3L188.456 153.193C187.8 153.575 187.793 154.52 188.443 154.912L202.997 163.696C203.308 163.884 203.695 163.888 204.01 163.709L205.525 162.843C206.187 162.465 206.199 161.515 205.547 161.119L191.009 152.308C190.695 152.118 190.303 152.115 189.986 152.3Z" fill="url(#paint63_linear_167_253)"/>
<path d="M223.986 174.3L222.456 175.193C221.8 175.575 221.793 176.52 222.443 176.912L236.997 185.696C237.308 185.884 237.695 185.888 238.01 185.709L239.525 184.843C240.187 184.465 240.199 183.515 239.547 183.119L225.009 174.308C224.695 174.118 224.303 174.115 223.986 174.3Z" fill="url(#paint64_linear_167_253)"/>
<path d="M163.986 168.3L162.456 169.193C161.8 169.575 161.793 170.52 162.443 170.912L176.997 179.696C177.308 179.884 177.695 179.888 178.01 179.709L179.525 178.843C180.187 178.465 180.199 177.515 179.547 177.119L165.009 168.308C164.695 168.118 164.303 168.115 163.986 168.3Z" fill="url(#paint65_linear_167_253)"/>
<path d="M198.986 190.3L197.456 191.193C196.8 191.575 196.793 192.52 197.443 192.912L211.997 201.696C212.308 201.884 212.695 201.888 213.01 201.709L214.525 200.843C215.187 200.465 215.199 199.515 214.547 199.119L200.009 190.308C199.695 190.118 199.303 190.115 198.986 190.3Z" fill="url(#paint66_linear_167_253)"/>
<path d="M182.987 156.299L182.954 156.318C182.299 156.7 182.29 157.644 182.939 158.037L202.484 169.887C202.801 170.08 203.199 170.081 203.517 169.89L203.576 169.854C204.222 169.467 204.224 168.531 203.579 168.141L184.008 156.307C183.695 156.118 183.303 156.115 182.987 156.299Z" fill="url(#paint67_linear_167_253)"/>
<path d="M218.987 178.299L218.954 178.318C218.299 178.7 218.29 179.644 218.939 180.037L238.484 191.887C238.801 192.08 239.199 192.081 239.517 191.89L239.576 191.854C240.222 191.467 240.224 190.531 239.579 190.141L220.008 178.307C219.695 178.118 219.303 178.115 218.987 178.299Z" fill="url(#paint68_linear_167_253)"/>
<path d="M192.987 194.299L192.954 194.318C192.299 194.7 192.29 195.644 192.939 196.037L212.484 207.887C212.801 208.08 213.199 208.081 213.517 207.89L213.576 207.854C214.222 207.467 214.224 206.531 213.579 206.141L194.008 194.307C193.695 194.118 193.303 194.115 192.987 194.299Z" fill="url(#paint69_linear_167_253)"/>
<path d="M156.987 172.299L156.954 172.318C156.299 172.7 156.29 173.644 156.939 174.037L176.484 185.887C176.801 186.08 177.199 186.081 177.517 185.89L177.576 185.854C178.222 185.467 178.224 184.531 177.579 184.141L158.008 172.307C157.695 172.118 157.303 172.115 156.987 172.299Z" fill="url(#paint70_linear_167_253)"/>
<path d="M179.487 158.299L179.454 158.318C178.799 158.7 178.79 159.644 179.439 160.037L197.005 170.687C197.322 170.88 197.72 170.881 198.038 170.69L198.097 170.654C198.743 170.267 198.745 169.331 198.1 168.941L180.508 158.307C180.195 158.118 179.803 158.115 179.487 158.299Z" fill="url(#paint71_linear_167_253)"/>
<path d="M215.487 180.299L215.454 180.318C214.799 180.7 214.79 181.644 215.439 182.037L233.005 192.687C233.322 192.88 233.72 192.881 234.038 192.69L234.097 192.654C234.743 192.267 234.745 191.331 234.1 190.941L216.508 180.307C216.195 180.118 215.803 180.115 215.487 180.299Z" fill="url(#paint72_linear_167_253)"/>
<path d="M189.487 196.299L189.454 196.318C188.799 196.7 188.79 197.644 189.439 198.037L207.005 208.687C207.322 208.88 207.72 208.881 208.038 208.69L208.097 208.654C208.743 208.267 208.745 207.331 208.1 206.941L190.508 196.307C190.195 196.118 189.803 196.115 189.487 196.299Z" fill="url(#paint73_linear_167_253)"/>
<path d="M153.487 174.299L153.454 174.318C152.799 174.7 152.79 175.644 153.439 176.037L171.005 186.687C171.322 186.88 171.72 186.881 172.038 186.69L172.097 186.654C172.743 186.267 172.745 185.331 172.1 184.941L154.508 174.307C154.195 174.118 153.803 174.115 153.487 174.299Z" fill="url(#paint74_linear_167_253)"/>
<path d="M176.489 160.297L176.46 160.314C175.803 160.697 175.796 161.644 176.448 162.036L197.485 174.69C197.802 174.881 198.198 174.881 198.515 174.691L198.571 174.657C199.218 174.269 199.218 173.331 198.571 172.943L177.507 160.304C177.194 160.117 176.804 160.114 176.489 160.297Z" fill="url(#paint75_linear_167_253)"/>
<path d="M212.489 182.297L212.46 182.314C211.803 182.697 211.796 183.644 212.448 184.036L233.485 196.69C233.802 196.881 234.198 196.881 234.515 196.691L234.571 196.657C235.218 196.269 235.218 195.331 234.571 194.943L213.507 182.304C213.194 182.117 212.804 182.114 212.489 182.297Z" fill="url(#paint76_linear_167_253)"/>
<path d="M186.489 198.297L186.46 198.314C185.803 198.697 185.796 199.644 186.448 200.036L207.485 212.69C207.802 212.881 208.198 212.881 208.515 212.691L208.571 212.657C209.218 212.269 209.218 211.331 208.571 210.943L187.507 198.304C187.194 198.117 186.804 198.114 186.489 198.297Z" fill="url(#paint77_linear_167_253)"/>
<path d="M150.489 176.297L150.46 176.314C149.803 176.697 149.796 177.644 150.448 178.036L171.485 190.69C171.802 190.881 172.198 190.881 172.515 190.691L172.571 190.657C173.218 190.269 173.218 189.331 172.571 188.943L151.507 176.304C151.194 176.117 150.804 176.114 150.489 176.297Z" fill="url(#paint78_linear_167_253)"/>
<path d="M173.487 162.299L173.454 162.318C172.799 162.7 172.79 163.644 173.439 164.037L192.984 175.887C193.301 176.08 193.699 176.081 194.017 175.89L194.076 175.854C194.722 175.467 194.724 174.531 194.079 174.141L174.508 162.307C174.195 162.118 173.803 162.115 173.487 162.299Z" fill="url(#paint79_linear_167_253)"/>
<path d="M209.487 184.299L209.454 184.318C208.799 184.7 208.79 185.644 209.439 186.037L228.984 197.887C229.301 198.08 229.699 198.081 230.017 197.89L230.076 197.854C230.722 197.467 230.724 196.531 230.079 196.141L210.508 184.307C210.195 184.118 209.803 184.115 209.487 184.299Z" fill="url(#paint80_linear_167_253)"/>
<path d="M183.487 200.299L183.454 200.318C182.799 200.7 182.79 201.644 183.439 202.037L202.984 213.887C203.301 214.08 203.699 214.081 204.017 213.89L204.076 213.854C204.722 213.467 204.724 212.531 204.079 212.141L184.508 200.307C184.195 200.118 183.803 200.115 183.487 200.299Z" fill="url(#paint81_linear_167_253)"/>
<path d="M147.487 178.299L147.454 178.318C146.799 178.7 146.79 179.644 147.439 180.037L166.984 191.887C167.301 192.08 167.699 192.081 168.017 191.89L168.076 191.854C168.722 191.467 168.724 190.531 168.079 190.141L148.508 178.307C148.195 178.118 147.803 178.115 147.487 178.299Z" fill="url(#paint82_linear_167_253)"/>
</g>
</g>
<defs>
<filter id="filter0_d_167_253" x="0.515137" y="0.232422" width="117.446" height="81.4585" filterUnits="userSpaceOnUse" color-interpolation-filters="sRGB">
<feFlood flood-opacity="0" result="BackgroundImageFix"/>
<feColorMatrix in="SourceAlpha" type="matrix" values="0 0 0 0 0 0 0 0 0 0 0 0 0 0 0 0 0 0 127 0" result="hardAlpha"/>
<feOffset dy="4"/>
<feGaussianBlur stdDeviation="5"/>
<feComposite in2="hardAlpha" operator="out"/>
<feColorMatrix type="matrix" values="0 0 0 0 0 0 0 0 0 0 0 0 0 0 0 0 0 0 0.25 0"/>
<feBlend mode="normal" in2="BackgroundImageFix" result="effect1_dropShadow_167_253"/>
<feBlend mode="normal" in="SourceGraphic" in2="effect1_dropShadow_167_253" result="shape"/>
</filter>
<filter id="filter1_d_167_253" x="43.921" y="26.7671" width="199.105" height="133.379" filterUnits="userSpaceOnUse" color-interpolation-filters="sRGB">
<feFlood flood-opacity="0" result="BackgroundImageFix"/>
<feColorMatrix in="SourceAlpha" type="matrix" values="0 0 0 0 0 0 0 0 0 0 0 0 0 0 0 0 0 0 127 0" result="hardAlpha"/>
<feOffset dx="2" dy="4"/>
<feGaussianBlur stdDeviation="5"/>
<feComposite in2="hardAlpha" operator="out"/>
<feColorMatrix type="matrix" values="0 0 0 0 0 0 0 0 0 0 0 0 0 0 0 0 0 0 0.25 0"/>
<feBlend mode="normal" in2="BackgroundImageFix" result="effect1_dropShadow_167_253"/>
<feBlend mode="normal" in="SourceGraphic" in2="effect1_dropShadow_167_253" result="shape"/>
</filter>
<filter id="filter2_d_167_253" x="132.353" y="104.331" width="200.73" height="133.364" filterUnits="userSpaceOnUse" color-interpolation-filters="sRGB">
<feFlood flood-opacity="0" result="BackgroundImageFix"/>
<feColorMatrix in="SourceAlpha" type="matrix" values="0 0 0 0 0 0 0 0 0 0 0 0 0 0 0 0 0 0 127 0" result="hardAlpha"/>
<feOffset dx="2" dy="4"/>
<feGaussianBlur stdDeviation="5"/>
<feComposite in2="hardAlpha" operator="out"/>
<feColorMatrix type="matrix" values="0 0 0 0 0 0 0 0 0 0 0 0 0 0 0 0 0 0 0.25 0"/>
<feBlend mode="normal" in2="BackgroundImageFix" result="effect1_dropShadow_167_253"/>
<feBlend mode="normal" in="SourceGraphic" in2="effect1_dropShadow_167_253" result="shape"/>
</filter>
<linearGradient id="paint0_linear_167_253" x1="109.568" y1="3.95946" x2="103.879" y2="30.6943" gradientUnits="userSpaceOnUse">
<stop stop-color="#008FFF"/>
<stop offset="1" stop-color="#2B5DA8"/>
</linearGradient>
<linearGradient id="paint1_linear_167_253" x1="102.116" y1="8.98648" x2="92.4038" y2="54.5261" gradientUnits="userSpaceOnUse">
<stop stop-color="#8DCDFF"/>
<stop offset="1" stop-color="#6490B3"/>
</linearGradient>
<linearGradient id="paint2_linear_167_253" x1="68.5" y1="10.7637" x2="72.8278" y2="29.1687" gradientUnits="userSpaceOnUse">
<stop stop-color="white"/>
<stop offset="1" stop-color="#E8E8E8"/>
</linearGradient>
<linearGradient id="paint3_linear_167_253" x1="77" y1="7.94595" x2="78.0361" y2="12.133" gradientUnits="userSpaceOnUse">
<stop stop-color="white"/>
<stop offset="1" stop-color="#E8E8E8"/>
</linearGradient>
<linearGradient id="paint4_linear_167_253" x1="55.9951" y1="27.4124" x2="54.4702" y2="35.0032" gradientUnits="userSpaceOnUse">
<stop stop-color="#008FFF"/>
<stop offset="1" stop-color="#2B5DA8"/>
</linearGradient>
<linearGradient id="paint5_linear_167_253" x1="64" y1="13.8205" x2="67.2831" y2="27.8047" gradientUnits="userSpaceOnUse">
<stop stop-color="white"/>
<stop offset="1" stop-color="#E8E8E8"/>
</linearGradient>
<linearGradient id="paint6_linear_167_253" x1="59" y1="16.7804" x2="63.0872" y2="33.8549" gradientUnits="userSpaceOnUse">
<stop stop-color="white"/>
<stop offset="1" stop-color="#E8E8E8"/>
</linearGradient>
<linearGradient id="paint7_linear_167_253" x1="54.8082" y1="35.6588" x2="52.203" y2="47.7111" gradientUnits="userSpaceOnUse">
<stop stop-color="#E6E6E6"/>
<stop offset="1" stop-color="#CAC9C9"/>
</linearGradient>
<linearGradient id="paint8_linear_167_253" x1="55" y1="20.8071" x2="58.6678" y2="35.7618" gradientUnits="userSpaceOnUse">
<stop stop-color="white"/>
<stop offset="1" stop-color="#E8E8E8"/>
</linearGradient>
<linearGradient id="paint9_linear_167_253" x1="86.5" y1="12.8071" x2="90.0795" y2="27.8072" gradientUnits="userSpaceOnUse">
<stop stop-color="white"/>
<stop offset="1" stop-color="#E8E8E8"/>
</linearGradient>
<linearGradient id="paint10_linear_167_253" x1="53" y1="21.8071" x2="56.6678" y2="36.7618" gradientUnits="userSpaceOnUse">
<stop stop-color="white"/>
<stop offset="1" stop-color="#E8E8E8"/>
</linearGradient>
<linearGradient id="paint11_linear_167_253" x1="51" y1="22.8071" x2="54.6678" y2="37.7618" gradientUnits="userSpaceOnUse">
<stop stop-color="white"/>
<stop offset="1" stop-color="#E8E8E8"/>
</linearGradient>
<linearGradient id="paint12_linear_167_253" x1="68.8384" y1="24.6972" x2="78.1676" y2="58.972" gradientUnits="userSpaceOnUse">
<stop stop-color="white"/>
<stop offset="1" stop-color="#E8E8E8"/>
</linearGradient>
<linearGradient id="paint13_linear_167_253" x1="51.3014" y1="37.1757" x2="44.8072" y2="67.8882" gradientUnits="userSpaceOnUse">
<stop stop-color="#8DCDFF"/>
<stop offset="1" stop-color="#6490B3"/>
</linearGradient>
<linearGradient id="paint14_linear_167_253" x1="25" y1="36.783" x2="29.2583" y2="53.5361" gradientUnits="userSpaceOnUse">
<stop stop-color="white"/>
<stop offset="1" stop-color="#E8E8E8"/>
</linearGradient>
<linearGradient id="paint15_linear_167_253" x1="19.7692" y1="40.7297" x2="25.043" y2="61.6152" gradientUnits="userSpaceOnUse">
<stop stop-color="white"/>
<stop offset="1" stop-color="#E8E8E8"/>
</linearGradient>
<linearGradient id="paint16_linear_167_253" x1="17" y1="42.7568" x2="21.7052" y2="61.5758" gradientUnits="userSpaceOnUse">
<stop stop-color="white"/>
<stop offset="1" stop-color="#E8E8E8"/>
</linearGradient>
<linearGradient id="paint17_linear_167_253" x1="14" y1="44.7294" x2="19.1941" y2="65.6902" gradientUnits="userSpaceOnUse">
<stop stop-color="white"/>
<stop offset="1" stop-color="#E8E8E8"/>
</linearGradient>
<linearGradient id="paint18_linear_167_253" x1="226.425" y1="32.2973" x2="209.73" y2="111.042" gradientUnits="userSpaceOnUse">
<stop stop-color="#008FFF"/>
<stop offset="1" stop-color="#2B5DA8"/>
</linearGradient>
<linearGradient id="paint19_linear_167_253" x1="118" y1="35.9279" x2="119.323" y2="41.5407" gradientUnits="userSpaceOnUse">
<stop stop-color="white"/>
<stop offset="1" stop-color="#E8E8E8"/>
</linearGradient>
<linearGradient id="paint20_linear_167_253" x1="146" y1="51.8485" x2="148.908" y2="63.5854" gradientUnits="userSpaceOnUse">
<stop stop-color="white"/>
<stop offset="1" stop-color="#E8E8E8"/>
</linearGradient>
<linearGradient id="paint21_linear_167_253" x1="159" y1="59.8485" x2="161.908" y2="71.5854" gradientUnits="userSpaceOnUse">
<stop stop-color="white"/>
<stop offset="1" stop-color="#E8E8E8"/>
</linearGradient>
<linearGradient id="paint22_linear_167_253" x1="172" y1="67.8485" x2="174.908" y2="79.5854" gradientUnits="userSpaceOnUse">
<stop stop-color="white"/>
<stop offset="1" stop-color="#E8E8E8"/>
</linearGradient>
<linearGradient id="paint23_linear_167_253" x1="212" y1="90.8485" x2="214.908" y2="102.585" gradientUnits="userSpaceOnUse">
<stop stop-color="white"/>
<stop offset="1" stop-color="#E8E8E8"/>
</linearGradient>
<linearGradient id="paint24_linear_167_253" x1="214.473" y1="41.3513" x2="193.553" y2="139.353" gradientUnits="userSpaceOnUse">
<stop stop-color="#8DCDFF"/>
<stop offset="1" stop-color="#6490B3"/>
</linearGradient>
<linearGradient id="paint25_linear_167_253" x1="214.473" y1="41.3513" x2="193.553" y2="139.353" gradientUnits="userSpaceOnUse">
<stop stop-color="#8DCDFF"/>
<stop offset="1" stop-color="#6490B3"/>
</linearGradient>
<linearGradient id="paint26_linear_167_253" x1="131.397" y1="63.4052" x2="159.904" y2="165.425" gradientUnits="userSpaceOnUse">
<stop stop-color="white"/>
<stop offset="1" stop-color="#E8E8E8"/>
</linearGradient>
<linearGradient id="paint27_linear_167_253" x1="104.5" y1="40.4144" x2="115.664" y2="85.8059" gradientUnits="userSpaceOnUse">
<stop stop-color="white"/>
<stop offset="1" stop-color="#E8E8E8"/>
</linearGradient>
<linearGradient id="paint28_linear_167_253" x1="96" y1="45.6373" x2="102.871" y2="73.7761" gradientUnits="userSpaceOnUse">
<stop stop-color="white"/>
<stop offset="1" stop-color="#E8E8E8"/>
</linearGradient>
<linearGradient id="paint29_linear_167_253" x1="89" y1="51.5495" x2="97.6649" y2="86.4253" gradientUnits="userSpaceOnUse">
<stop stop-color="white"/>
<stop offset="1" stop-color="#E8E8E8"/>
</linearGradient>
<linearGradient id="paint30_linear_167_253" x1="86" y1="53.5495" x2="94.6649" y2="88.4253" gradientUnits="userSpaceOnUse">
<stop stop-color="white"/>
<stop offset="1" stop-color="#E8E8E8"/>
</linearGradient>
<linearGradient id="paint31_linear_167_253" x1="83" y1="55.6299" x2="90.0748" y2="84.3042" gradientUnits="userSpaceOnUse">
<stop stop-color="white"/>
<stop offset="1" stop-color="#E8E8E8"/>
</linearGradient>
<linearGradient id="paint32_linear_167_253" x1="92.0274" y1="60.5616" x2="89.9144" y2="70.8826" gradientUnits="userSpaceOnUse">
<stop stop-color="#008FFF"/>
<stop offset="1" stop-color="#2B5DA8"/>
</linearGradient>
<linearGradient id="paint33_linear_167_253" x1="123.808" y1="89.6588" x2="121.203" y2="101.711" gradientUnits="userSpaceOnUse">
<stop stop-color="#E6E6E6"/>
<stop offset="1" stop-color="#CAC9C9"/>
</linearGradient>
<linearGradient id="paint34_linear_167_253" x1="88.3014" y1="70.6757" x2="81.8072" y2="101.388" gradientUnits="userSpaceOnUse">
<stop stop-color="#8DCDFF"/>
<stop offset="1" stop-color="#6490B3"/>
</linearGradient>
<linearGradient id="paint35_linear_167_253" x1="122.301" y1="92.6757" x2="115.807" y2="123.388" gradientUnits="userSpaceOnUse">
<stop stop-color="#8DCDFF"/>
<stop offset="1" stop-color="#6490B3"/>
</linearGradient>
<linearGradient id="paint36_linear_167_253" x1="159.301" y1="115.676" x2="152.807" y2="146.388" gradientUnits="userSpaceOnUse">
<stop stop-color="#8DCDFF"/>
<stop offset="1" stop-color="#6490B3"/>
</linearGradient>
<linearGradient id="paint37_linear_167_253" x1="62" y1="70.783" x2="66.2583" y2="87.5361" gradientUnits="userSpaceOnUse">
<stop stop-color="white"/>
<stop offset="1" stop-color="#E8E8E8"/>
</linearGradient>
<linearGradient id="paint38_linear_167_253" x1="58" y1="74.8014" x2="61.9153" y2="90.1244" gradientUnits="userSpaceOnUse">
<stop stop-color="white"/>
<stop offset="1" stop-color="#E8E8E8"/>
</linearGradient>
<linearGradient id="paint39_linear_167_253" x1="92" y1="95.8014" x2="95.9153" y2="111.124" gradientUnits="userSpaceOnUse">
<stop stop-color="white"/>
<stop offset="1" stop-color="#E8E8E8"/>
</linearGradient>
<linearGradient id="paint40_linear_167_253" x1="130" y1="119.801" x2="133.915" y2="135.124" gradientUnits="userSpaceOnUse">
<stop stop-color="white"/>
<stop offset="1" stop-color="#E8E8E8"/>
</linearGradient>
<linearGradient id="paint41_linear_167_253" x1="96" y1="92.783" x2="100.258" y2="109.536" gradientUnits="userSpaceOnUse">
<stop stop-color="white"/>
<stop offset="1" stop-color="#E8E8E8"/>
</linearGradient>
<linearGradient id="paint42_linear_167_253" x1="134" y1="115.783" x2="138.258" y2="132.536" gradientUnits="userSpaceOnUse">
<stop stop-color="white"/>
<stop offset="1" stop-color="#E8E8E8"/>
</linearGradient>
<linearGradient id="paint43_linear_167_253" x1="319.075" y1="109.365" x2="307.631" y2="161.72" gradientUnits="userSpaceOnUse">
<stop stop-color="#008FFF"/>
<stop offset="1" stop-color="#2B5DA8"/>
</linearGradient>
<linearGradient id="paint44_linear_167_253" x1="249" y1="112.928" x2="250.323" y2="118.541" gradientUnits="userSpaceOnUse">
<stop stop-color="white"/>
<stop offset="1" stop-color="#E8E8E8"/>
</linearGradient>
<linearGradient id="paint45_linear_167_253" x1="263" y1="120.848" x2="266.003" y2="132.534" gradientUnits="userSpaceOnUse">
<stop stop-color="white"/>
<stop offset="1" stop-color="#E8E8E8"/>
</linearGradient>
<linearGradient id="paint46_linear_167_253" x1="275.5" y1="128.848" x2="278.503" y2="140.534" gradientUnits="userSpaceOnUse">
<stop stop-color="white"/>
<stop offset="1" stop-color="#E8E8E8"/>
</linearGradient>
<linearGradient id="paint47_linear_167_253" x1="288.5" y1="136.848" x2="291.503" y2="148.534" gradientUnits="userSpaceOnUse">
<stop stop-color="white"/>
<stop offset="1" stop-color="#E8E8E8"/>
</linearGradient>
<linearGradient id="paint48_linear_167_253" x1="306.427" y1="148.316" x2="308.842" y2="158.039" gradientUnits="userSpaceOnUse">
<stop stop-color="white"/>
<stop offset="1" stop-color="#E8E8E8"/>
</linearGradient>
<linearGradient id="paint49_linear_167_253" x1="306.801" y1="117.162" x2="290.182" y2="193.228" gradientUnits="userSpaceOnUse">
<stop stop-color="#8DCDFF"/>
<stop offset="1" stop-color="#6490B3"/>
</linearGradient>
<linearGradient id="paint50_linear_167_253" x1="306.801" y1="117.162" x2="290.182" y2="193.228" gradientUnits="userSpaceOnUse">
<stop stop-color="#8DCDFF"/>
<stop offset="1" stop-color="#6490B3"/>
</linearGradient>
<linearGradient id="paint51_linear_167_253" x1="242.008" y1="134.892" x2="265.349" y2="219.546" gradientUnits="userSpaceOnUse">
<stop stop-color="white"/>
<stop offset="1" stop-color="#E8E8E8"/>
</linearGradient>
<linearGradient id="paint52_linear_167_253" x1="236.5" y1="117.553" x2="245.417" y2="151.982" gradientUnits="userSpaceOnUse">
<stop stop-color="white"/>
<stop offset="1" stop-color="#E8E8E8"/>
</linearGradient>
<linearGradient id="paint53_linear_167_253" x1="229" y1="122.634" x2="236.261" y2="150.826" gradientUnits="userSpaceOnUse">
<stop stop-color="white"/>
<stop offset="1" stop-color="#E8E8E8"/>
</linearGradient>
<linearGradient id="paint54_linear_167_253" x1="221" y1="129.622" x2="228.637" y2="158.721" gradientUnits="userSpaceOnUse">
<stop stop-color="white"/>
<stop offset="1" stop-color="#E8E8E8"/>
</linearGradient>
<linearGradient id="paint55_linear_167_253" x1="218" y1="131.622" x2="225.637" y2="160.721" gradientUnits="userSpaceOnUse">
<stop stop-color="white"/>
<stop offset="1" stop-color="#E8E8E8"/>
</linearGradient>
<linearGradient id="paint56_linear_167_253" x1="215" y1="133.622" x2="222.637" y2="162.721" gradientUnits="userSpaceOnUse">
<stop stop-color="white"/>
<stop offset="1" stop-color="#E8E8E8"/>
</linearGradient>
<linearGradient id="paint57_linear_167_253" x1="222.162" y1="140.562" x2="219.939" y2="150.834" gradientUnits="userSpaceOnUse">
<stop stop-color="#008FFF"/>
<stop offset="1" stop-color="#2B5DA8"/>
</linearGradient>
<linearGradient id="paint58_linear_167_253" x1="231.808" y1="160.659" x2="229.203" y2="172.711" gradientUnits="userSpaceOnUse">
<stop stop-color="#E6E6E6"/>
<stop offset="1" stop-color="#CAC9C9"/>
</linearGradient>
<linearGradient id="paint59_linear_167_253" x1="213.301" y1="151.676" x2="206.807" y2="182.388" gradientUnits="userSpaceOnUse">
<stop stop-color="#8DCDFF"/>
<stop offset="1" stop-color="#6490B3"/>
</linearGradient>
<linearGradient id="paint60_linear_167_253" x1="187.301" y1="167.676" x2="180.807" y2="198.388" gradientUnits="userSpaceOnUse">
<stop stop-color="#8DCDFF"/>
<stop offset="1" stop-color="#6490B3"/>
</linearGradient>
<linearGradient id="paint61_linear_167_253" x1="247.301" y1="173.676" x2="240.807" y2="204.388" gradientUnits="userSpaceOnUse">
<stop stop-color="#8DCDFF"/>
<stop offset="1" stop-color="#6490B3"/>
</linearGradient>
<linearGradient id="paint62_linear_167_253" x1="221.301" y1="189.676" x2="214.807" y2="220.388" gradientUnits="userSpaceOnUse">
<stop stop-color="#8DCDFF"/>
<stop offset="1" stop-color="#6490B3"/>
</linearGradient>
<linearGradient id="paint63_linear_167_253" x1="187" y1="151.784" x2="191.144" y2="168.532" gradientUnits="userSpaceOnUse">
<stop stop-color="white"/>
<stop offset="1" stop-color="#E8E8E8"/>
</linearGradient>
<linearGradient id="paint64_linear_167_253" x1="221" y1="173.784" x2="225.144" y2="190.532" gradientUnits="userSpaceOnUse">
<stop stop-color="white"/>
<stop offset="1" stop-color="#E8E8E8"/>
</linearGradient>
<linearGradient id="paint65_linear_167_253" x1="161" y1="167.784" x2="165.144" y2="184.532" gradientUnits="userSpaceOnUse">
<stop stop-color="white"/>
<stop offset="1" stop-color="#E8E8E8"/>
</linearGradient>
<linearGradient id="paint66_linear_167_253" x1="196" y1="189.784" x2="200.144" y2="206.532" gradientUnits="userSpaceOnUse">
<stop stop-color="white"/>
<stop offset="1" stop-color="#E8E8E8"/>
</linearGradient>
<linearGradient id="paint67_linear_167_253" x1="181.5" y1="155.744" x2="186.435" y2="175.546" gradientUnits="userSpaceOnUse">
<stop stop-color="white"/>
<stop offset="1" stop-color="#E8E8E8"/>
</linearGradient>
<linearGradient id="paint68_linear_167_253" x1="217.5" y1="177.744" x2="222.435" y2="197.546" gradientUnits="userSpaceOnUse">
<stop stop-color="white"/>
<stop offset="1" stop-color="#E8E8E8"/>
</linearGradient>
<linearGradient id="paint69_linear_167_253" x1="191.5" y1="193.744" x2="196.435" y2="213.546" gradientUnits="userSpaceOnUse">
<stop stop-color="white"/>
<stop offset="1" stop-color="#E8E8E8"/>
</linearGradient>
<linearGradient id="paint70_linear_167_253" x1="155.5" y1="171.744" x2="160.435" y2="191.546" gradientUnits="userSpaceOnUse">
<stop stop-color="white"/>
<stop offset="1" stop-color="#E8E8E8"/>
</linearGradient>
<linearGradient id="paint71_linear_167_253" x1="178" y1="157.766" x2="182.517" y2="175.895" gradientUnits="userSpaceOnUse">
<stop stop-color="white"/>
<stop offset="1" stop-color="#E8E8E8"/>
</linearGradient>
<linearGradient id="paint72_linear_167_253" x1="214" y1="179.766" x2="218.517" y2="197.895" gradientUnits="userSpaceOnUse">
<stop stop-color="white"/>
<stop offset="1" stop-color="#E8E8E8"/>
</linearGradient>
<linearGradient id="paint73_linear_167_253" x1="188" y1="195.766" x2="192.517" y2="213.895" gradientUnits="userSpaceOnUse">
<stop stop-color="white"/>
<stop offset="1" stop-color="#E8E8E8"/>
</linearGradient>
<linearGradient id="paint74_linear_167_253" x1="152" y1="173.766" x2="156.517" y2="191.895" gradientUnits="userSpaceOnUse">
<stop stop-color="white"/>
<stop offset="1" stop-color="#E8E8E8"/>
</linearGradient>
<linearGradient id="paint75_linear_167_253" x1="175" y1="159.73" x2="180.181" y2="180.665" gradientUnits="userSpaceOnUse">
<stop stop-color="white"/>
<stop offset="1" stop-color="#E8E8E8"/>
</linearGradient>
<linearGradient id="paint76_linear_167_253" x1="211" y1="181.73" x2="216.181" y2="202.665" gradientUnits="userSpaceOnUse">
<stop stop-color="white"/>
<stop offset="1" stop-color="#E8E8E8"/>
</linearGradient>
<linearGradient id="paint77_linear_167_253" x1="185" y1="197.73" x2="190.181" y2="218.665" gradientUnits="userSpaceOnUse">
<stop stop-color="white"/>
<stop offset="1" stop-color="#E8E8E8"/>
</linearGradient>
<linearGradient id="paint78_linear_167_253" x1="149" y1="175.73" x2="154.181" y2="196.665" gradientUnits="userSpaceOnUse">
<stop stop-color="white"/>
<stop offset="1" stop-color="#E8E8E8"/>
</linearGradient>
<linearGradient id="paint79_linear_167_253" x1="172" y1="161.744" x2="176.935" y2="181.546" gradientUnits="userSpaceOnUse">
<stop stop-color="white"/>
<stop offset="1" stop-color="#E8E8E8"/>
</linearGradient>
<linearGradient id="paint80_linear_167_253" x1="208" y1="183.744" x2="212.935" y2="203.546" gradientUnits="userSpaceOnUse">
<stop stop-color="white"/>
<stop offset="1" stop-color="#E8E8E8"/>
</linearGradient>
<linearGradient id="paint81_linear_167_253" x1="182" y1="199.744" x2="186.935" y2="219.546" gradientUnits="userSpaceOnUse">
<stop stop-color="white"/>
<stop offset="1" stop-color="#E8E8E8"/>
</linearGradient>
<linearGradient id="paint82_linear_167_253" x1="146" y1="177.744" x2="150.935" y2="197.546" gradientUnits="userSpaceOnUse">
<stop stop-color="white"/>
<stop offset="1" stop-color="#E8E8E8"/>
</linearGradient>
</defs>
</svg>
