<svg width="780" height="594" viewBox="0 0 780 594" fill="none" xmlns="http://www.w3.org/2000/svg">
<path d="M258.937 17.1477L254.5 20L527 389.5L532.623 385.001C533.81 384.052 534.5 382.616 534.5 381.097V175.888C534.5 174.101 533.546 172.45 531.999 171.557L264.139 17.0227C262.518 16.0875 260.511 16.1358 258.937 17.1477Z" fill="#525252"/>
<path d="M252 24.1758V230.123C252 231.904 252.948 233.551 254.487 234.446L521.487 389.633C524.821 391.571 529 389.166 529 385.311V178.882C529 177.098 528.05 175.45 526.507 174.555L259.507 19.8496C256.173 17.9182 252 20.3233 252 24.1758Z" fill="#3B3B3B"/>
<g filter="url(#filter0_d_60_2243)">
<path d="M334.662 329.275L378.014 305.371C379.556 304.521 381.431 304.544 382.951 305.433L451.5 345.5L403.072 375.411C401.491 376.388 399.498 376.407 397.898 375.46L334.53 337.956C331.2 335.986 331.274 331.143 334.662 329.275Z" fill="url(#paint0_linear_60_2243)"/>
</g>
<path d="M529 366L252 206V230.618C252 232.402 252.95 234.05 254.493 234.945L521.493 389.65C524.827 391.582 529 389.177 529 385.324V366Z" fill="url(#paint1_linear_60_2243)"/>
<path d="M263.5 38.5V200L515 345.5V184L263.5 38.5Z" fill="white"/>
<mask id="mask0_60_2243" style="mask-type:alpha" maskUnits="userSpaceOnUse" x="263" y="38" width="252" height="308">
<path d="M263.5 38.5V200L515 345.5V184L263.5 38.5Z" fill="white"/>
</mask>
<g mask="url(#mask0_60_2243)">
<path d="M260 30.5L260.045 52L521.045 203L523.5 180.5L260 30.5Z" fill="url(#paint2_linear_60_2243)"/>
<ellipse cx="292.5" cy="63" rx="3.5" ry="5" fill="url(#paint3_linear_60_2243)"/>
<path d="M345 92.7604V94.4313C345 94.7839 345.186 95.1105 345.489 95.2907L369.489 109.565C370.155 109.961 371 109.481 371 108.705V107.068C371 106.716 370.815 106.39 370.512 106.209L346.512 91.9014C345.845 91.504 345 91.9843 345 92.7604Z" fill="url(#paint4_linear_60_2243)"/>
<path d="M373 109.76V111.431C373 111.784 373.186 112.11 373.489 112.291L397.489 126.565C398.155 126.961 399 126.481 399 125.705V124.068C399 123.716 398.815 123.39 398.512 123.209L374.512 108.901C373.845 108.504 373 108.984 373 109.76Z" fill="url(#paint5_linear_60_2243)"/>
<path d="M401 126.76V128.431C401 128.784 401.186 129.11 401.489 129.291L425.489 143.565C426.155 143.961 427 143.481 427 142.705V141.068C427 140.716 426.815 140.39 426.512 140.209L402.512 125.901C401.845 125.504 401 125.984 401 126.76Z" fill="url(#paint6_linear_60_2243)"/>
<path d="M464 161.76V163.431C464 163.784 464.186 164.11 464.489 164.291L488.489 178.565C489.155 178.961 490 178.481 490 177.705V176.068C490 175.716 489.815 175.39 489.512 175.209L465.512 160.901C464.845 160.504 464 160.984 464 161.76Z" fill="url(#paint7_linear_60_2243)"/>
<path d="M263.5 54V133L515 278.5V199.5L263.5 54Z" fill="url(#paint8_linear_60_2243)"/>
<mask id="mask1_60_2243" style="mask-type:alpha" maskUnits="userSpaceOnUse" x="263" y="54" width="252" height="225">
<path d="M263.5 54V133L515 278.5V199.5L263.5 54Z" fill="url(#paint9_linear_60_2243)"/>
</mask>
<g mask="url(#mask1_60_2243)">
<path d="M385 185C359.8 191.8 393.167 216.834 419.5 232L521.5 284.5L517.5 198L435.5 149C422.5 145.5 435.1 155.3 419.5 152.5C403.9 149.7 401.5 162.667 408 171.5C412 178.5 410.2 178.2 385 185Z" fill="url(#paint10_linear_60_2243)"/>
<path d="M289 75.7337V88.9207C289 89.279 289.192 89.6099 289.502 89.7882L389.502 147.141C390.169 147.523 391 147.042 391 146.274V133.577C391 133.22 390.81 132.89 390.501 132.711L290.501 74.8681C289.834 74.4824 289 74.9635 289 75.7337Z" fill="url(#paint11_linear_60_2243)"/>
<path d="M289 94.7351V107.921C289 108.279 289.192 108.61 289.502 108.788L372.502 156.391C373.169 156.773 374 156.292 374 155.524V142.826C374 142.47 373.81 142.14 373.501 141.961L290.501 93.8699C289.835 93.4836 289 93.9647 289 94.7351Z" fill="url(#paint12_linear_60_2243)"/>
<path d="M289 116.74V122.173C289 122.53 289.191 122.86 289.5 123.039L377.5 173.843C378.167 174.228 379 173.747 379 172.977V168.033C379 167.678 378.811 167.349 378.504 167.169L290.504 115.876C289.837 115.488 289 115.969 289 116.74Z" fill="url(#paint13_linear_60_2243)"/>
<path d="M289 125.74V131.172C289 131.53 289.191 131.86 289.5 132.039L372.424 179.885C373.091 180.269 373.924 179.788 373.924 179.018V174.075C373.924 173.719 373.735 173.39 373.427 173.211L290.504 124.876C289.837 124.488 289 124.969 289 125.74Z" fill="url(#paint14_linear_60_2243)"/>
</g>
<path d="M312.867 151.632L293.098 140.13C290.993 138.905 288.583 141.167 289.673 143.345C289.886 143.772 290.22 144.128 290.633 144.368L310.402 155.87C312.507 157.095 314.917 154.833 313.827 152.655C313.614 152.228 313.28 151.872 312.867 151.632Z" fill="url(#paint15_linear_60_2243)"/>
<path d="M362 201.734V208.923C362 209.28 362.19 209.61 362.499 209.789L398.499 230.631C399.166 231.017 400 230.536 400 229.766V222.577C400 222.22 399.81 221.89 399.501 221.711L363.501 200.869C362.834 200.483 362 200.964 362 201.734Z" fill="url(#paint16_linear_60_2243)"/>
<path d="M289 184.176V214.261C289 215.337 289.576 216.33 290.509 216.864L329.009 238.918C331.009 240.063 333.5 238.619 333.5 236.315V206.229C333.5 205.154 332.924 204.161 331.991 203.626L293.491 181.573C291.491 180.427 289 181.871 289 184.176Z" fill="url(#paint17_linear_60_2243)"/>
<path d="M341 214.176V244.261C341 245.337 341.576 246.33 342.509 246.864L381.009 268.918C383.009 270.063 385.5 268.619 385.5 266.315V236.229C385.5 235.154 384.924 234.161 383.991 233.626L345.491 211.573C343.491 210.427 341 211.871 341 214.176Z" fill="url(#paint18_linear_60_2243)"/>
<path d="M393 244.176V274.261C393 275.337 393.576 276.33 394.509 276.864L433.009 298.918C435.009 300.063 437.5 298.619 437.5 296.315V266.229C437.5 265.154 436.924 264.161 435.991 263.626L397.491 241.573C395.491 240.427 393 241.871 393 244.176Z" fill="url(#paint19_linear_60_2243)"/>
<path d="M445 274.176V304.261C445 305.337 445.576 306.33 446.509 306.864L485.009 328.918C487.009 330.063 489.5 328.619 489.5 326.315V296.229C489.5 295.154 488.924 294.161 487.991 293.626L449.491 271.573C447.491 270.427 445 271.871 445 274.176Z" fill="url(#paint20_linear_60_2243)"/>
<path d="M291 184.246V189.427C291 189.782 291.188 190.11 291.494 190.29L312.494 202.616C313.16 203.007 314 202.527 314 201.754V196.573C314 196.218 313.812 195.89 313.506 195.71L292.506 183.384C291.84 182.993 291 183.473 291 184.246Z" fill="url(#paint21_linear_60_2243)"/>
<path d="M343 213.746V218.927C343 219.282 343.188 219.61 343.494 219.79L364.494 232.116C365.16 232.507 366 232.027 366 231.254V226.073C366 225.718 365.812 225.39 365.506 225.21L344.506 212.884C343.84 212.493 343 212.973 343 213.746Z" fill="url(#paint22_linear_60_2243)"/>
<path d="M395 244.246V249.427C395 249.782 395.188 250.11 395.494 250.29L416.494 262.616C417.16 263.007 418 262.527 418 261.754V256.573C418 256.218 417.812 255.89 417.506 255.71L396.506 243.384C395.84 242.993 395 243.473 395 244.246Z" fill="url(#paint23_linear_60_2243)"/>
<path d="M447 274.746V279.927C447 280.282 447.188 280.61 447.494 280.79L468.494 293.116C469.16 293.507 470 293.027 470 292.254V287.073C470 286.718 469.812 286.39 469.506 286.21L448.506 273.884C447.84 273.493 447 273.973 447 274.746Z" fill="url(#paint24_linear_60_2243)"/>
<path d="M291 195.745V197.927C291 198.282 291.188 198.61 291.495 198.79L324.495 218.118C325.161 218.509 326 218.028 326 217.255V215.073C326 214.718 325.812 214.39 325.505 214.21L292.505 194.882C291.839 194.491 291 194.972 291 195.745Z" fill="url(#paint25_linear_60_2243)"/>
<path d="M343 225.245V227.427C343 227.782 343.188 228.11 343.495 228.29L376.495 247.618C377.161 248.009 378 247.528 378 246.755V244.573C378 244.218 377.812 243.89 377.505 243.71L344.505 224.382C343.839 223.991 343 224.472 343 225.245Z" fill="url(#paint26_linear_60_2243)"/>
<path d="M395 255.745V257.927C395 258.282 395.188 258.61 395.495 258.79L428.495 278.118C429.161 278.509 430 278.028 430 277.255V275.073C430 274.718 429.812 274.39 429.505 274.21L396.505 254.882C395.839 254.491 395 254.972 395 255.745Z" fill="url(#paint27_linear_60_2243)"/>
<path d="M447 286.245V288.427C447 288.782 447.188 289.11 447.495 289.29L480.495 308.618C481.161 309.009 482 308.528 482 307.755V305.573C482 305.218 481.812 304.89 481.505 304.71L448.505 285.382C447.839 284.991 447 285.472 447 286.245Z" fill="url(#paint28_linear_60_2243)"/>
<path d="M291 201.745V203.927C291 204.282 291.188 204.61 291.495 204.79L319.495 221.19C320.161 221.58 321 221.099 321 220.327V218.145C321 217.79 320.812 217.461 320.505 217.282L292.505 200.882C291.839 200.491 291 200.972 291 201.745Z" fill="url(#paint29_linear_60_2243)"/>
<path d="M343 231.245V233.427C343 233.782 343.188 234.11 343.495 234.29L371.495 250.69C372.161 251.08 373 250.599 373 249.827V247.645C373 247.29 372.812 246.961 372.505 246.782L344.505 230.382C343.839 229.991 343 230.472 343 231.245Z" fill="url(#paint30_linear_60_2243)"/>
<path d="M395 261.745V263.927C395 264.282 395.188 264.61 395.495 264.79L423.495 281.19C424.161 281.58 425 281.099 425 280.327V278.145C425 277.79 424.812 277.461 424.505 277.282L396.505 260.882C395.839 260.491 395 260.972 395 261.745Z" fill="url(#paint31_linear_60_2243)"/>
<path d="M447 292.245V294.427C447 294.782 447.188 295.11 447.495 295.29L475.495 311.69C476.161 312.08 477 311.599 477 310.827V308.645C477 308.29 476.812 307.961 476.505 307.782L448.505 291.382C447.839 290.991 447 291.472 447 292.245Z" fill="url(#paint32_linear_60_2243)"/>
<path d="M291 207.745V209.927C291 210.282 291.188 210.61 291.495 210.79L322.495 228.947C323.161 229.337 324 228.857 324 228.084V225.902C324 225.547 323.812 225.218 323.505 225.039L292.505 206.882C291.839 206.491 291 206.972 291 207.745Z" fill="url(#paint33_linear_60_2243)"/>
<path d="M343 237.245V239.427C343 239.782 343.188 240.11 343.495 240.29L374.495 258.447C375.161 258.837 376 258.357 376 257.584V255.402C376 255.047 375.812 254.718 375.505 254.539L344.505 236.382C343.839 235.991 343 236.472 343 237.245Z" fill="url(#paint34_linear_60_2243)"/>
<path d="M395 267.745V269.927C395 270.282 395.188 270.61 395.495 270.79L426.495 288.947C427.161 289.337 428 288.857 428 288.084V285.902C428 285.547 427.812 285.218 427.505 285.039L396.505 266.882C395.839 266.491 395 266.972 395 267.745Z" fill="url(#paint35_linear_60_2243)"/>
<path d="M447 298.245V300.427C447 300.782 447.188 301.11 447.495 301.29L478.495 319.447C479.161 319.837 480 319.357 480 318.584V316.402C480 316.047 479.812 315.718 479.505 315.539L448.505 297.382C447.839 296.991 447 297.472 447 298.245Z" fill="url(#paint36_linear_60_2243)"/>
</g>
<defs>
<filter id="filter0_d_60_2243" x="331.076" y="304.75" width="127.424" height="79.4077" filterUnits="userSpaceOnUse" color-interpolation-filters="sRGB">
<feFlood flood-opacity="0" result="BackgroundImageFix"/>
<feColorMatrix in="SourceAlpha" type="matrix" values="0 0 0 0 0 0 0 0 0 0 0 0 0 0 0 0 0 0 127 0" result="hardAlpha"/>
<feOffset dx="3" dy="4"/>
<feGaussianBlur stdDeviation="2"/>
<feComposite in2="hardAlpha" operator="out"/>
<feColorMatrix type="matrix" values="0 0 0 0 0 0 0 0 0 0 0 0 0 0 0 0 0 0 0.25 0"/>
<feBlend mode="normal" in2="BackgroundImageFix" result="effect1_dropShadow_60_2243"/>
<feBlend mode="normal" in="SourceGraphic" in2="effect1_dropShadow_60_2243" result="shape"/>
</filter>
<linearGradient id="paint0_linear_60_2243" x1="372.5" y1="358" x2="404.5" y2="321.5" gradientUnits="userSpaceOnUse">
<stop stop-color="#C5C5C5"/>
<stop offset="1" stop-color="#5A5A5A"/>
</linearGradient>
<linearGradient id="paint1_linear_60_2243" x1="269" y1="231" x2="482" y2="354" gradientUnits="userSpaceOnUse">
<stop stop-color="#C6C6C6"/>
<stop offset="1" stop-color="#5A5A5A"/>
</linearGradient>
<linearGradient id="paint2_linear_60_2243" x1="494.623" y1="39.8243" x2="455.287" y2="209.232" gradientUnits="userSpaceOnUse">
<stop stop-color="#008FFF"/>
<stop offset="1" stop-color="#2B5DA8"/>
</linearGradient>
<linearGradient id="paint3_linear_60_2243" x1="289" y1="57.8198" x2="295.478" y2="68.8145" gradientUnits="userSpaceOnUse">
<stop stop-color="white"/>
<stop offset="1" stop-color="#E8E8E8"/>
</linearGradient>
<linearGradient id="paint4_linear_60_2243" x1="345" y1="90.6493" x2="353.126" y2="116.969" gradientUnits="userSpaceOnUse">
<stop stop-color="white"/>
<stop offset="1" stop-color="#E8E8E8"/>
</linearGradient>
<linearGradient id="paint5_linear_60_2243" x1="373" y1="107.649" x2="381.126" y2="133.969" gradientUnits="userSpaceOnUse">
<stop stop-color="white"/>
<stop offset="1" stop-color="#E8E8E8"/>
</linearGradient>
<linearGradient id="paint6_linear_60_2243" x1="401" y1="124.649" x2="409.126" y2="150.969" gradientUnits="userSpaceOnUse">
<stop stop-color="white"/>
<stop offset="1" stop-color="#E8E8E8"/>
</linearGradient>
<linearGradient id="paint7_linear_60_2243" x1="464" y1="159.649" x2="472.126" y2="185.969" gradientUnits="userSpaceOnUse">
<stop stop-color="white"/>
<stop offset="1" stop-color="#E8E8E8"/>
</linearGradient>
<linearGradient id="paint8_linear_60_2243" x1="487.438" y1="66.1351" x2="420.572" y2="277.327" gradientUnits="userSpaceOnUse">
<stop stop-color="#8DCDFF"/>
<stop offset="1" stop-color="#6490B3"/>
</linearGradient>
<linearGradient id="paint9_linear_60_2243" x1="487.438" y1="66.1351" x2="420.572" y2="277.327" gradientUnits="userSpaceOnUse">
<stop stop-color="#8DCDFF"/>
<stop offset="1" stop-color="#6490B3"/>
</linearGradient>
<linearGradient id="paint10_linear_60_2243" x1="376.056" y1="145.78" x2="443.912" y2="321.388" gradientUnits="userSpaceOnUse">
<stop stop-color="white"/>
<stop offset="1" stop-color="#E8E8E8"/>
</linearGradient>
<linearGradient id="paint11_linear_60_2243" x1="289" y1="72.6667" x2="319.1" y2="173.265" gradientUnits="userSpaceOnUse">
<stop stop-color="white"/>
<stop offset="1" stop-color="#E8E8E8"/>
</linearGradient>
<linearGradient id="paint12_linear_60_2243" x1="289" y1="91.8423" x2="316.039" y2="178.576" gradientUnits="userSpaceOnUse">
<stop stop-color="white"/>
<stop offset="1" stop-color="#E8E8E8"/>
</linearGradient>
<linearGradient id="paint13_linear_60_2243" x1="289" y1="113.924" x2="311.513" y2="196.201" gradientUnits="userSpaceOnUse">
<stop stop-color="white"/>
<stop offset="1" stop-color="#E8E8E8"/>
</linearGradient>
<linearGradient id="paint14_linear_60_2243" x1="289" y1="122.977" x2="310.53" y2="201.098" gradientUnits="userSpaceOnUse">
<stop stop-color="white"/>
<stop offset="1" stop-color="#E8E8E8"/>
</linearGradient>
<linearGradient id="paint15_linear_60_2243" x1="314.048" y1="137.297" x2="307.792" y2="160.447" gradientUnits="userSpaceOnUse">
<stop stop-color="#008FFF"/>
<stop offset="1" stop-color="#2B5DA8"/>
</linearGradient>
<linearGradient id="paint16_linear_60_2243" x1="375.808" y1="200.659" x2="373.203" y2="212.711" gradientUnits="userSpaceOnUse">
<stop stop-color="#E6E6E6"/>
<stop offset="1" stop-color="#CAC9C9"/>
</linearGradient>
<linearGradient id="paint17_linear_60_2243" x1="328.623" y1="182.378" x2="302.811" y2="234.2" gradientUnits="userSpaceOnUse">
<stop stop-color="#8DCDFF"/>
<stop offset="1" stop-color="#6490B3"/>
</linearGradient>
<linearGradient id="paint18_linear_60_2243" x1="380.623" y1="212.378" x2="354.811" y2="264.2" gradientUnits="userSpaceOnUse">
<stop stop-color="#8DCDFF"/>
<stop offset="1" stop-color="#6490B3"/>
</linearGradient>
<linearGradient id="paint19_linear_60_2243" x1="432.623" y1="242.378" x2="406.811" y2="294.2" gradientUnits="userSpaceOnUse">
<stop stop-color="#8DCDFF"/>
<stop offset="1" stop-color="#6490B3"/>
</linearGradient>
<linearGradient id="paint20_linear_60_2243" x1="484.623" y1="272.378" x2="458.811" y2="324.2" gradientUnits="userSpaceOnUse">
<stop stop-color="#8DCDFF"/>
<stop offset="1" stop-color="#6490B3"/>
</linearGradient>
<linearGradient id="paint21_linear_60_2243" x1="291" y1="182.122" x2="301.258" y2="209.363" gradientUnits="userSpaceOnUse">
<stop stop-color="white"/>
<stop offset="1" stop-color="#E8E8E8"/>
</linearGradient>
<linearGradient id="paint22_linear_60_2243" x1="343" y1="211.622" x2="353.258" y2="238.863" gradientUnits="userSpaceOnUse">
<stop stop-color="white"/>
<stop offset="1" stop-color="#E8E8E8"/>
</linearGradient>
<linearGradient id="paint23_linear_60_2243" x1="395" y1="242.122" x2="405.258" y2="269.363" gradientUnits="userSpaceOnUse">
<stop stop-color="white"/>
<stop offset="1" stop-color="#E8E8E8"/>
</linearGradient>
<linearGradient id="paint24_linear_60_2243" x1="447" y1="272.622" x2="457.258" y2="299.863" gradientUnits="userSpaceOnUse">
<stop stop-color="white"/>
<stop offset="1" stop-color="#E8E8E8"/>
</linearGradient>
<linearGradient id="paint25_linear_60_2243" x1="291" y1="193.55" x2="301.037" y2="227.621" gradientUnits="userSpaceOnUse">
<stop stop-color="white"/>
<stop offset="1" stop-color="#E8E8E8"/>
</linearGradient>
<linearGradient id="paint26_linear_60_2243" x1="343" y1="223.05" x2="353.037" y2="257.121" gradientUnits="userSpaceOnUse">
<stop stop-color="white"/>
<stop offset="1" stop-color="#E8E8E8"/>
</linearGradient>
<linearGradient id="paint27_linear_60_2243" x1="395" y1="253.55" x2="405.037" y2="287.621" gradientUnits="userSpaceOnUse">
<stop stop-color="white"/>
<stop offset="1" stop-color="#E8E8E8"/>
</linearGradient>
<linearGradient id="paint28_linear_60_2243" x1="447" y1="284.05" x2="457.037" y2="318.121" gradientUnits="userSpaceOnUse">
<stop stop-color="white"/>
<stop offset="1" stop-color="#E8E8E8"/>
</linearGradient>
<linearGradient id="paint29_linear_60_2243" x1="291" y1="199.602" x2="300.083" y2="229.537" gradientUnits="userSpaceOnUse">
<stop stop-color="white"/>
<stop offset="1" stop-color="#E8E8E8"/>
</linearGradient>
<linearGradient id="paint30_linear_60_2243" x1="343" y1="229.102" x2="352.083" y2="259.037" gradientUnits="userSpaceOnUse">
<stop stop-color="white"/>
<stop offset="1" stop-color="#E8E8E8"/>
</linearGradient>
<linearGradient id="paint31_linear_60_2243" x1="395" y1="259.602" x2="404.083" y2="289.537" gradientUnits="userSpaceOnUse">
<stop stop-color="white"/>
<stop offset="1" stop-color="#E8E8E8"/>
</linearGradient>
<linearGradient id="paint32_linear_60_2243" x1="447" y1="290.102" x2="456.083" y2="320.037" gradientUnits="userSpaceOnUse">
<stop stop-color="white"/>
<stop offset="1" stop-color="#E8E8E8"/>
</linearGradient>
<linearGradient id="paint33_linear_60_2243" x1="291" y1="205.571" x2="300.654" y2="237.989" gradientUnits="userSpaceOnUse">
<stop stop-color="white"/>
<stop offset="1" stop-color="#E8E8E8"/>
</linearGradient>
<linearGradient id="paint34_linear_60_2243" x1="343" y1="235.071" x2="352.654" y2="267.489" gradientUnits="userSpaceOnUse">
<stop stop-color="white"/>
<stop offset="1" stop-color="#E8E8E8"/>
</linearGradient>
<linearGradient id="paint35_linear_60_2243" x1="395" y1="265.571" x2="404.654" y2="297.989" gradientUnits="userSpaceOnUse">
<stop stop-color="white"/>
<stop offset="1" stop-color="#E8E8E8"/>
</linearGradient>
<linearGradient id="paint36_linear_60_2243" x1="447" y1="296.071" x2="456.654" y2="328.489" gradientUnits="userSpaceOnUse">
<stop stop-color="white"/>
<stop offset="1" stop-color="#E8E8E8"/>
</linearGradient>
</defs>
</svg>
