<svg width="1144" height="205" viewBox="0 0 1144 205" fill="none" xmlns="http://www.w3.org/2000/svg">
<path d="M1.29729 196.14C-0.558416 198.185 -0.404999 201.347 1.63995 203.203C3.68491 205.058 6.84701 204.905 8.70271 202.86L1.29729 196.14ZM448 5.00005L448.039 9.99989L448 5.00005ZM671.5 5.00005L671.417 0.000731468L671.5 5.00005ZM903 4.99994V-5.76973e-05V4.99994ZM1122.46 2.74874C1121.22 0.283074 1118.21 -0.707793 1115.75 0.535575L1075.57 20.7974C1073.1 22.0408 1072.11 25.0476 1073.36 27.5132C1074.6 29.9789 1077.61 30.9697 1080.07 29.7264L1115.79 11.7158L1133.8 47.4317C1135.04 49.8973 1138.05 50.8882 1140.51 49.6448C1142.98 48.4015 1143.97 45.3947 1142.73 42.9291L1122.46 2.74874ZM5 199.5C8.70271 202.86 8.7032 202.86 8.70436 202.858C8.70564 202.857 8.70746 202.855 8.71002 202.852C8.71514 202.846 8.72293 202.838 8.73337 202.826C8.75426 202.803 8.78577 202.769 8.82775 202.722C8.91171 202.63 9.03755 202.492 9.20408 202.309C9.53715 201.943 10.033 201.4 10.682 200.69C11.9801 199.27 13.891 197.186 16.3385 194.533C21.2335 189.225 28.2741 181.641 36.8502 172.538C54.0055 154.33 77.29 130.063 101.828 105.806C126.384 81.5308 152.114 57.3452 174.178 39.2574C185.219 30.206 195.234 22.7705 203.655 17.6238C207.865 15.0508 211.585 13.107 214.766 11.8187C218.002 10.5081 220.382 10 222 10V4.52995e-05C218.556 4.62532e-05 214.811 1.01153 211.012 2.55002C207.158 4.11089 202.933 6.34578 198.44 9.09114C189.457 14.5812 179.039 22.341 167.838 31.524C145.417 49.9049 119.429 74.3443 94.7974 98.6942C70.1475 123.062 46.7758 147.42 29.5717 165.681C20.9681 174.813 13.9032 182.423 8.9877 187.753C6.52989 190.417 4.60926 192.512 3.30212 193.942C2.64855 194.656 2.14834 195.205 1.81102 195.575C1.64237 195.76 1.51443 195.901 1.42841 195.996C1.3854 196.043 1.35287 196.079 1.33097 196.103C1.32001 196.115 1.31172 196.124 1.3061 196.13C1.30329 196.133 1.30109 196.136 1.29968 196.137C1.29815 196.139 1.29729 196.14 5 199.5ZM222 10C230.621 10 240.659 14.2934 251.626 21.5789C262.481 28.7901 273.592 38.4814 284.277 48.3591C294.818 58.1037 305.124 68.2076 313.869 75.6704C318.268 79.4248 322.476 82.693 326.334 85.027C330.04 87.2696 334.132 89.0981 338.125 88.9985L337.875 79.0016C336.857 79.027 334.831 78.4805 331.51 76.4712C328.341 74.5533 324.612 71.6926 320.36 68.064C311.804 60.7613 301.956 51.0839 291.065 41.016C280.318 31.0812 268.719 20.9287 257.159 13.2493C245.711 5.64422 233.629 4.29153e-05 222 4.52995e-05V10ZM338.125 88.9985C342.141 88.8983 345.921 86.9198 349.232 84.5374C352.636 82.0882 356.182 78.7382 359.808 74.9707C363.453 71.1838 367.345 66.7988 371.411 62.2079C375.501 57.5901 379.793 52.7338 384.334 47.8843C402.779 28.1821 423.944 10.1876 448.039 9.99989L447.961 0.000197411C419.169 0.224481 395.356 21.4799 377.034 41.0498C372.382 46.0183 367.996 50.9814 363.925 55.5778C359.83 60.2012 356.079 64.4253 352.604 68.0359C349.11 71.6659 346.058 74.5018 343.392 76.4203C340.632 78.4057 338.87 78.9768 337.875 79.0016L338.125 88.9985ZM448.039 9.99989C472.487 9.80945 494.51 28.0489 513.556 48.0421C518.241 52.9601 522.664 57.891 526.848 62.569C531.009 67.2206 534.967 71.6603 538.629 75.4797C542.271 79.2784 545.792 82.6481 549.11 85.0925C552.289 87.4338 556.029 89.5001 560 89.5001V79.5001C559.346 79.5001 557.794 79.0688 555.041 77.0413C552.429 75.1168 549.382 72.2463 545.847 68.5591C542.332 64.8928 538.505 60.6013 534.302 55.9022C530.122 51.2295 525.603 46.1902 520.796 41.1446C501.876 21.2833 477.149 -0.22717 447.961 0.000197411L448.039 9.99989ZM560 89.5001C563.949 89.5001 567.673 87.4763 570.852 85.163C574.164 82.7526 577.674 79.4288 581.301 75.6791C584.948 71.9087 588.887 67.5246 593.027 62.924C597.191 58.2975 601.59 53.4158 606.252 48.5358C625.186 28.7135 647.134 10.4043 671.583 9.99936L671.417 0.000731468C642.395 0.481452 617.844 21.9223 599.02 41.6286C594.242 46.6308 589.749 51.6174 585.594 56.2346C581.415 60.8778 577.609 65.1129 574.114 68.7263C570.598 72.3606 567.567 75.1855 564.967 77.0778C562.234 79.0672 560.676 79.5001 560 79.5001V89.5001ZM671.583 9.99936C696.601 9.58496 719.111 27.852 738.705 47.9044C743.529 52.841 748.092 57.7924 752.425 62.4948C756.734 67.1711 760.845 71.634 764.671 75.4778C768.477 79.302 772.17 82.6884 775.671 85.1417C779.061 87.5167 782.936 89.5001 787 89.5001V79.5001C786.064 79.5001 784.291 78.9707 781.41 76.952C778.64 75.0116 775.441 72.1233 771.759 68.4235C768.096 64.7433 764.123 60.433 759.779 55.7184C755.459 51.03 750.799 45.9731 745.858 40.9156C726.389 20.9913 701.149 -0.491744 671.417 0.000731468L671.583 9.99936ZM787 89.5001C791.045 89.5001 794.917 87.5478 798.317 85.197C801.828 82.7704 805.535 79.4189 809.359 75.6299C813.202 71.8216 817.334 67.3983 821.666 62.7579C826.023 58.0918 830.611 53.1744 835.462 48.264C855.153 28.3334 877.826 9.99992 903 9.99994V-5.76973e-05C873.255 -8.72612e-05 847.929 21.4165 828.349 41.236C823.382 46.2631 818.699 51.2832 814.357 55.9335C809.991 60.6096 805.999 64.8815 802.32 68.5264C798.622 72.1905 795.41 75.05 792.631 76.9711C789.742 78.968 787.955 79.5001 787 79.5001V89.5001ZM903 9.99994C913.632 9.99995 925.521 15.1198 938.043 23.5872C950.472 31.9922 962.933 43.2835 974.623 54.7561C980.456 60.4803 986.053 66.2053 991.341 71.6078C996.61 76.9912 1001.59 82.0763 1006.13 86.4385C1010.64 90.779 1014.85 94.5504 1018.58 97.2445C1020.45 98.5938 1022.32 99.7611 1024.14 100.595C1025.92 101.411 1027.98 102.06 1030.14 101.998L1029.86 92.002C1029.87 92.0018 1029.75 92.0055 1029.47 91.9345C1029.19 91.8637 1028.8 91.732 1028.3 91.5029C1027.29 91.0373 1026 90.2685 1024.43 89.1364C1021.29 86.8676 1017.49 83.4945 1013.06 79.2334C1008.66 74.994 1003.78 70.0206 998.487 64.6129C993.213 59.2244 987.544 53.4259 981.627 47.6189C969.817 36.029 956.84 24.2265 943.645 15.3034C930.541 6.44266 916.618 -4.3869e-05 903 -5.76973e-05V9.99994ZM1030.14 101.998C1033.28 101.908 1036.77 100.817 1040.24 99.2796C1043.79 97.7048 1047.72 95.4872 1051.84 92.7813C1060.09 87.3664 1069.42 79.7976 1078.6 70.9037C1096.87 53.2114 1115.14 29.6653 1122.75 6.565L1113.25 3.43511C1106.36 24.3348 1089.38 46.5386 1071.65 63.7213C1062.83 72.2649 1053.98 79.4149 1046.35 84.4218C1042.53 86.9269 1039.1 88.846 1036.19 90.1364C1033.19 91.4645 1031.09 91.9667 1029.86 92.002L1030.14 101.998Z" fill="#6F95C2"/>
</svg>
