<svg width="168" height="268" viewBox="0 0 168 268" fill="none" xmlns="http://www.w3.org/2000/svg">
<path d="M6.12039 1.26913L1 4L158 264.5L165.867 258.993C167.204 258.057 168 256.528 168 254.897V89.9682C168 88.1384 167.001 86.4549 165.394 85.5787L10.8676 1.29141C9.38983 0.48536 7.60566 0.476983 6.12039 1.26913Z" fill="#002670"/>
<path d="M158.419 90.0732L7.41898 6.60117C4.08651 4.759 0 7.16933 0 10.9771V175.067C0 176.878 0.979402 178.547 2.56029 179.431L153.56 263.841C156.893 265.704 161 263.295 161 259.477V94.4491C161 92.6295 160.011 90.9535 158.419 90.0732Z" fill="#05003D"/>
<mask id="mask0_165_59" style="mask-type:alpha" maskUnits="userSpaceOnUse" x="0" y="3" width="161" height="265">
<path d="M161 91.5L2.96759 4.14047C1.6346 3.4036 0 4.36774 0 5.89084V175.067C0 176.878 0.979402 178.547 2.56029 179.431L161 268V91.5Z" fill="#05003D"/>
</mask>
<g mask="url(#mask0_165_59)">
<path d="M0 5.89105V19.5L160.978 109.5V94.4489C160.978 92.6294 159.99 90.9535 158.397 90.0732L2.96769 4.14075C1.6347 3.40378 0 4.3679 0 5.89105Z" fill="#003397"/>
<path d="M5 31.7015V33.9128C5 34.2753 5.1962 34.6095 5.51278 34.7861L82.5128 77.7464C83.1793 78.1183 84 77.6364 84 76.8731V74.5824C84 74.2196 83.8035 73.8852 83.4865 73.7087L6.48654 30.8278C5.81999 30.4566 5 30.9386 5 31.7015Z" fill="#FF6B00"/>
<path d="M5 39.701V44.4127C5 44.7753 5.19625 45.1095 5.51291 45.2861L73.5129 83.2114C74.1795 83.5831 75 83.1012 75 82.338V77.5471C75 77.1843 74.8034 76.8498 74.4863 76.6734L6.48631 38.8272C5.81977 38.4563 5 38.9382 5 39.701Z" fill="#274285"/>
<path d="M5 49.7014V54.4127C5 54.7753 5.19625 55.1095 5.51291 55.2861L96.5129 106.039C97.1795 106.411 98 105.929 98 105.166V100.375C98 100.012 97.8035 99.6775 97.4865 99.501L6.48651 48.8278C5.81996 48.4566 5 48.9385 5 49.7014Z" fill="#274285"/>
<path d="M5 59.7019V64.4128C5 64.7753 5.1962 65.1095 5.51277 65.2861L107.013 121.916C107.679 122.288 108.5 121.806 108.5 121.043V116.252C108.5 115.889 108.304 115.555 107.987 115.378L6.4867 58.8283C5.82015 58.4569 5 58.9389 5 59.7019Z" fill="#274285"/>
<path d="M5 69.7019V74.4129C5 74.7754 5.19612 75.1095 5.51261 75.2861L82.0126 117.987C82.6792 118.359 83.5 117.877 83.5 117.114V112.323C83.5 111.961 83.3036 111.626 82.9867 111.45L6.4867 68.8283C5.82015 68.4569 5 68.9389 5 69.7019Z" fill="#274285"/>
<path d="M5 81.7011V83.9127C5 84.2753 5.19625 84.6095 5.51291 84.7861L79.0129 125.779C79.6795 126.151 80.5 125.669 80.5 124.905V122.615C80.5 122.252 80.3034 121.917 79.9864 121.741L6.48637 80.8274C5.81983 80.4564 5 80.9383 5 81.7011Z" fill="#00FF38"/>
<path d="M5 89.7019V94.4133C5 94.7755 5.19594 95.1095 5.51219 95.2862L52.5122 121.55C53.1788 121.923 54 121.441 54 120.677V115.888C54 115.525 53.8036 115.191 53.4867 115.014L6.4867 88.8283C5.82015 88.4569 5 88.9389 5 89.7019Z" fill="#274285"/>
<path d="M5 99.7015V104.413C5 104.775 5.19625 105.109 5.51291 105.286L102.513 159.385C103.179 159.757 104 159.275 104 158.512V153.721C104 153.358 103.803 153.024 103.487 152.847L6.48654 98.8279C5.81999 98.4567 5 98.9386 5 99.7015Z" fill="#274285"/>
<path d="M5 109.702V114.413C5 114.775 5.19612 115.109 5.51261 115.286L82.0126 157.987C82.6792 158.359 83.5 157.877 83.5 157.114V152.323C83.5 151.961 83.3036 151.626 82.9867 151.45L6.4867 108.828C5.82015 108.457 5 108.939 5 109.702Z" fill="#274285"/>
<path d="M5 119.702V124.413C5 124.775 5.19626 125.109 5.51291 125.286L105.714 181.171C106.38 181.542 107.201 181.06 107.201 180.297V175.506C107.201 175.143 107.004 174.809 106.687 174.633L6.48656 118.828C5.82001 118.457 5 118.939 5 119.702Z" fill="#274285"/>
<path d="M5 131.692V134.111C5 134.475 5.19808 134.811 5.51705 134.986L67.517 169.182C68.1835 169.55 69 169.068 69 168.306V165.808C69 165.444 68.8015 165.108 68.4821 164.932L6.4821 130.816C5.81564 130.449 5 130.931 5 131.692Z" fill="#FF6B00"/>
<path d="M5 139.701V144.413C5 144.775 5.19626 145.109 5.51291 145.286L83.5129 188.789C84.1795 189.16 85 188.678 85 187.915V183.124C85 182.761 84.8034 182.427 84.4864 182.251L6.48641 138.827C5.81987 138.456 5 138.938 5 139.701Z" fill="#274285"/>
<path d="M5 149.701V154.413C5 154.775 5.19625 155.109 5.51291 155.286L91.5129 203.25C92.1795 203.622 93 203.14 93 202.377V197.586C93 197.223 92.8035 196.889 92.4865 196.712L6.48647 148.828C5.81993 148.457 5 148.938 5 149.701Z" fill="#274285"/>
<path d="M5 159.701V164.413C5 164.775 5.19625 165.109 5.51291 165.286L66.5129 199.307C67.1795 199.679 68 199.197 68 198.434V193.643C68 193.28 67.8034 192.946 67.4862 192.769L6.48623 158.827C5.81969 158.456 5 158.938 5 159.701Z" fill="#274285"/>
<path d="M5 169.701V174.413C5 174.775 5.19625 175.109 5.51291 175.286L89.5129 222.135C90.1795 222.507 91 222.025 91 221.262V216.471C91 216.108 90.8035 215.773 90.4865 215.597L6.48646 168.828C5.81991 168.457 5 168.938 5 169.701Z" fill="#274285"/>
</g>
</svg>
