<svg width="164" height="84" viewBox="0 0 164 84" fill="none" xmlns="http://www.w3.org/2000/svg">
<path d="M45.7741 30.1889C45.4901 27.3243 44.2708 25.099 42.1165 23.5128C39.9621 21.9266 37.0384 21.1335 33.3452 21.1335C30.8357 21.1335 28.7169 21.4886 26.9886 22.1989C25.2604 22.8854 23.9347 23.8442 23.0114 25.0753C22.1117 26.3063 21.6619 27.7031 21.6619 29.2656C21.6146 30.5677 21.8868 31.7041 22.4787 32.6747C23.0942 33.6454 23.9347 34.4858 25 35.196C26.0653 35.8826 27.2964 36.4863 28.6932 37.0071C30.09 37.5043 31.5814 37.9304 33.1676 38.2855L39.7017 39.848C42.8741 40.5582 45.786 41.5052 48.4375 42.6889C51.089 43.8726 53.3854 45.3286 55.3267 47.0568C57.268 48.785 58.7713 50.821 59.8366 53.1648C60.9257 55.5085 61.482 58.1955 61.5057 61.2259C61.482 65.6766 60.3456 69.5355 58.0966 72.8026C55.8712 76.0459 52.6515 78.5672 48.4375 80.3665C44.2472 82.142 39.1927 83.0298 33.2741 83.0298C27.4029 83.0298 22.2893 82.1302 17.9332 80.331C13.6009 78.5317 10.2154 75.8684 7.77699 72.3409C5.36222 68.7898 4.09564 64.3982 3.97727 59.1662H18.8565C19.0223 61.6046 19.7206 63.6406 20.9517 65.2741C22.2064 66.884 23.8755 68.1032 25.9588 68.9318C28.0658 69.7367 30.4451 70.1392 33.0966 70.1392C35.7008 70.1392 37.9616 69.7604 39.8793 69.0028C41.8205 68.2453 43.3239 67.1918 44.3892 65.8423C45.4545 64.4929 45.9872 62.9422 45.9872 61.1903C45.9872 59.5568 45.5019 58.1837 44.5312 57.071C43.5843 55.9583 42.1875 55.0114 40.3409 54.2301C38.518 53.4489 36.2808 52.7386 33.6293 52.0994L25.7102 50.1108C19.5786 48.6193 14.7372 46.2874 11.1861 43.1151C7.63494 39.9427 5.87121 35.6695 5.89489 30.2955C5.87121 25.892 7.04309 22.045 9.41051 18.7543C11.8016 15.4635 15.0805 12.8949 19.2472 11.0483C23.4138 9.2017 28.1487 8.27841 33.4517 8.27841C38.8494 8.27841 43.5606 9.2017 47.5852 11.0483C51.6335 12.8949 54.7822 15.4635 57.0312 18.7543C59.2803 22.045 60.4403 25.8565 60.5114 30.1889H45.7741Z" fill="white"/>
<path d="M76.8565 82H60.3793L85.4858 9.27273H105.301L130.372 82H113.895L95.6776 25.892H95.1094L76.8565 82ZM75.8267 53.4134H114.747V65.4162H75.8267V53.4134Z" fill="white"/>
<path d="M111.481 10.7776L131.052 3.95002L132.945 9.37777L113.375 16.2054L111.481 10.7776ZM134.526 5.79652C134.244 4.98958 134.27 4.20396 134.604 3.43967C134.949 2.6809 135.499 2.16965 136.255 1.90591C137.003 1.64513 137.743 1.70595 138.477 2.08837C139.222 2.47631 139.736 3.07376 140.017 3.8807C140.299 4.68764 140.267 5.47049 139.922 6.22926C139.588 6.99355 139.048 7.50609 138.3 7.76686C137.544 8.0306 136.794 7.9685 136.048 7.58055C135.315 7.19814 134.807 6.60346 134.526 5.79652ZM140.827 31.9711L118.87 31.9567L116.736 25.8409L133.92 12.1713L135.92 17.9048L123.336 26.8544L123.407 27.0582L138.823 26.2248L140.827 31.9711ZM123.62 46.7603C123.185 45.5116 123.013 44.3233 123.105 43.1954C123.206 42.0645 123.586 41.0648 124.246 40.1964C124.917 39.3335 125.897 38.6769 127.189 38.2264C128.276 37.8471 129.259 37.7282 130.137 37.8696C131.015 38.011 131.799 38.3472 132.49 38.8781C133.18 39.4091 133.792 40.072 134.327 40.8669C134.864 41.6703 135.349 42.5398 135.78 43.4756C136.296 44.5723 136.726 45.4511 137.071 46.1121C137.425 46.7701 137.763 47.2192 138.085 47.4594C138.407 47.6996 138.776 47.7471 139.192 47.6019L139.268 47.5752C140.075 47.2937 140.611 46.8211 140.875 46.1573C141.141 45.5021 141.113 44.7115 140.79 43.7857C140.45 42.8088 139.962 42.1072 139.327 41.6807C138.701 41.2513 138.032 41.0557 137.322 41.0941L135.978 35.9318C137.256 35.7718 138.459 35.9143 139.586 36.3596C140.722 36.8018 141.729 37.5318 142.608 38.5495C143.499 39.5727 144.216 40.8658 144.762 42.4287C145.141 43.516 145.377 44.601 145.469 45.6837C145.563 46.7749 145.478 47.8003 145.213 48.76C144.95 49.7281 144.477 50.584 143.793 51.3275C143.118 52.0681 142.198 52.6414 141.034 53.0474L127.835 57.6525L126.039 52.5051L128.753 51.5583L128.699 51.4054C127.978 51.3044 127.292 51.0722 126.641 50.7085C125.999 50.3419 125.417 49.835 124.896 49.1879C124.383 48.5378 123.958 47.7286 123.62 46.7603ZM127.908 47.0078C128.187 47.8063 128.59 48.4565 129.118 48.9584C129.654 49.4574 130.254 49.7862 130.92 49.9448C131.585 50.1034 132.261 50.0627 132.949 49.8226L135.026 49.0981C134.856 48.9667 134.673 48.7687 134.476 48.504C134.29 48.2448 134.095 47.946 133.891 47.6074C133.696 47.2658 133.505 46.9228 133.318 46.5783C133.14 46.2309 132.977 45.9159 132.831 45.6334C132.515 45.0289 132.173 44.5244 131.803 44.1199C131.433 43.7153 131.028 43.4421 130.588 43.3003C130.156 43.1555 129.686 43.1721 129.176 43.3499C128.437 43.6077 127.966 44.0723 127.762 44.7437C127.569 45.4207 127.618 46.1754 127.908 47.0078ZM142.511 63.344L131.197 67.2912L129.304 61.8635L148.874 55.0358L150.679 60.2088L147.226 61.4134L147.306 61.6427C148.595 61.6788 149.749 62.091 150.767 62.8791C151.794 63.6643 152.561 64.7832 153.067 66.2356C153.541 67.5947 153.658 68.8834 153.416 70.1016C153.174 71.3198 152.598 72.4019 151.69 73.3477C150.79 74.2906 149.579 75.0273 148.059 75.5577L135.598 79.905L133.704 74.4772L145.197 70.4678C146.397 70.0585 147.225 69.4267 147.68 68.5725C148.143 67.7154 148.185 66.7432 147.806 65.6559C147.551 64.9254 147.168 64.3347 146.659 63.8837C146.152 63.4413 145.542 63.1681 144.829 63.0642C144.128 62.9659 143.355 63.0591 142.511 63.344Z" fill="white"/>
</svg>
