<svg width="172" height="121" viewBox="0 0 172 121" fill="none" xmlns="http://www.w3.org/2000/svg">
<rect width="171.567" height="121" rx="10" fill="#698DB9"/>
<mask id="mask0_146_92" style="mask-type:alpha" maskUnits="userSpaceOnUse" x="0" y="0" width="172" height="121">
<rect width="171.567" height="121" rx="10" fill="#D9D9D9"/>
</mask>
<g mask="url(#mask0_146_92)">
<path d="M88.6507 49.1644L180.16 117.408C184.017 120.285 181.983 126.417 177.171 126.417L-7.39844 126.417C-12.2308 126.417 -14.2521 120.242 -10.3553 117.384L82.7048 49.1405C84.4767 47.8411 86.8893 47.8508 88.6507 49.1644Z" fill="#5D7DA3"/>
<path d="M82.9164 70.0275L-8.59266 1.78353C-12.45 -1.09317 -10.4155 -7.22461 -5.60356 -7.22461H178.965C183.798 -7.22461 185.819 -1.05026 181.922 1.80741L88.8623 70.0514C87.0904 71.3508 84.6778 71.3411 82.9164 70.0275Z" fill="#6F95C2"/>
</g>
</svg>
